<?xml version="1.0" encoding="UTF-8"?>
<!DOCTYPE svg PUBLIC "-//W3C//DTD SVG 1.1//EN" "http://www.w3.org/Graphics/SVG/1.1/DTD/svg11.dtd">
<!-- Creator: CorelDRAW 2018 (64-Bit) -->
<svg xmlns="http://www.w3.org/2000/svg" xml:space="preserve" width="178.736mm" height="134.038mm" version="1.1" style="shape-rendering:geometricPrecision; text-rendering:geometricPrecision; image-rendering:optimizeQuality; fill-rule:evenodd; clip-rule:evenodd"
viewBox="0 0 2258.03 1693.35"
 xmlns:xlink="http://www.w3.org/1999/xlink">
 <defs>
  <style type="text/css">
   <![CDATA[
    .fil0 {fill:#A7A7A7}
   ]]>
  </style>
 </defs>
 <g id="Layer_x0020_1">
  <metadata id="CorelCorpID_0Corel-Layer"/>
  <path class="fil0" d="M1489.52 1693.35c14.95,-17.8 169.48,-369.68 195.17,-424.56 65.69,-140.35 125.24,-285.1 191.72,-423.45 67.09,-139.64 125.2,-284.03 191.9,-423.13 44.47,-92.72 153.77,-331.66 189.72,-422.21l-2258.03 565.46c7.03,6.11 6.43,5.51 16.54,11.36 139.33,80.62 311.73,164.24 457.16,246.87 80.93,45.98 77.16,28.28 99.23,83.47 17.71,44.28 35.18,85.2 53.67,129.03 34.83,82.58 69.8,178.88 108.75,255.46l-9.41 -375.54 1021.02 -546.19 -298.32 248.23c-180,153.86 -380.6,312.01 -563.61,465.92 -16.98,14.28 -20.41,11.23 -23.56,42.73 -16.35,163.44 -43.13,333.94 -54.18,496.78 0.9,-0.82 1.98,-2 2.54,-2.61l52.91 -73.44c24.3,-34.81 139.6,-207.37 158.83,-223.48 63.65,44.94 277.7,218.88 350.04,277.44l117.92 91.86z"/>
 </g>
</svg>
