<?xml version="1.0" encoding="UTF-8"?>
<!DOCTYPE svg PUBLIC "-//W3C//DTD SVG 1.1//EN" "http://www.w3.org/Graphics/SVG/1.1/DTD/svg11.dtd">
<!-- Creator: CorelDRAW 2018 (64-Bit) -->
<svg xmlns="http://www.w3.org/2000/svg" xml:space="preserve" width="178.736mm" height="134.038mm" version="1.1" style="shape-rendering:geometricPrecision; text-rendering:geometricPrecision; image-rendering:optimizeQuality; fill-rule:evenodd; clip-rule:evenodd"
viewBox="0 0 1898.93 1424.05"
 xmlns:xlink="http://www.w3.org/1999/xlink">
 <defs>
  <style type="text/css">
   <![CDATA[
    .fil0 {fill:#FF6600}
   ]]>
  </style>
 </defs>
 <g id="Layer_x0020_1">
  <metadata id="CorelCorpID_0Corel-Layer"/>
  <path class="fil0" d="M1252.64 1424.05c12.57,-14.97 142.53,-310.89 164.13,-357.04 55.24,-118.03 105.33,-239.76 161.23,-356.11 56.42,-117.43 105.29,-238.86 161.38,-355.83 37.4,-77.98 129.32,-278.92 159.55,-355.07l-1898.93 475.53c5.91,5.14 5.4,4.63 13.91,9.55 117.17,67.8 262.15,138.12 384.45,207.61 68.06,38.67 64.89,23.78 83.45,70.19 14.89,37.24 29.59,71.65 45.13,108.51 29.29,69.45 58.7,150.43 91.45,214.83l-7.91 -315.81 858.64 -459.33 -250.88 208.75c-151.38,129.39 -320.07,262.39 -473.98,391.83 -14.28,12.01 -17.16,9.44 -19.81,35.94 -13.75,137.45 -36.27,280.83 -45.56,417.77 0.75,-0.69 1.67,-1.68 2.14,-2.2l44.5 -61.76c20.43,-29.28 117.4,-174.39 133.57,-187.94 53.52,37.79 233.54,184.07 294.37,233.32l99.17 77.26z"/>
 </g>
</svg>
