<?xml version="1.0" encoding="UTF-8"?>
<!DOCTYPE svg PUBLIC "-//W3C//DTD SVG 1.1//EN" "http://www.w3.org/Graphics/SVG/1.1/DTD/svg11.dtd">
<!-- Creator: CorelDRAW 2018 (64-Bit) -->
<svg xmlns="http://www.w3.org/2000/svg" xml:space="preserve" width="76.1998mm" height="22.0265mm" version="1.1" style="shape-rendering:geometricPrecision; text-rendering:geometricPrecision; image-rendering:optimizeQuality; fill-rule:evenodd; clip-rule:evenodd"
viewBox="0 0 2049.96 592.57"
 xmlns:xlink="http://www.w3.org/1999/xlink">
 <defs>
  <style type="text/css">
   <![CDATA[
    .fil0 {fill:black;fill-rule:nonzero}
    .fil1 {fill:white;fill-rule:nonzero}
   ]]>
  </style>
 </defs>
 <g id="Layer_x0020_1">
  <metadata id="CorelCorpID_0Corel-Layer"/>
  <path class="fil0" d="M1979.9 592.57l-1909.83 0c-38.7,0 -70.07,-31.36 -70.07,-70.07l0 -452.43c0,-38.7 31.36,-70.07 70.07,-70.07l1909.83 0c38.7,0 70.06,31.36 70.06,70.07l0 452.43c0,38.7 -31.37,70.07 -70.06,70.07z"/>
  <g>
   <path class="fil1" d="M708.49 151.44l-7.86 -24.62c-1.93,-6.08 -3.56,-12.86 -5.04,-18.65l-0.3 0c-1.45,5.78 -2.97,12.72 -4.71,18.65l-7.71 24.62 25.62 0zm-28.58 13.75l-8.6 28.32 -18.83 0 32.03 -99.87 23.24 0 32.44 99.87 -19.54 0 -9.05 -28.32 -31.7 0zm0 0l0 0 0 0z"/>
  </g>
  <g>
   <path class="fil1" d="M767.44 121.38l11.72 36.55c2.08,6.38 3.52,12.16 4.86,18.09l0.45 0c1.33,-5.93 2.96,-11.57 4.89,-18.09l11.57 -36.55 19.09 0 -27.55 72.14 -17.91 0 -26.84 -72.14 19.72 0zm0 0l0 0 0 0z"/>
  </g>
  <g>
   <path class="fil1" d="M874.98 158.22c-12.9,-0.15 -25.21,2.52 -25.21,13.49 0,7.12 4.59,10.38 10.38,10.38 7.38,0 12.6,-4.75 14.35,-9.94 0.48,-1.33 0.48,-2.67 0.48,-4l0 -9.94zm17.76 17.94c0,6.52 0.3,12.9 1.19,17.31l-16.46 0 -1.3 -7.97 -0.48 0c-4.26,5.6 -11.83,9.6 -21.32,9.6 -14.53,0 -22.65,-10.49 -22.65,-21.47 0,-18.09 16.13,-27.4 42.78,-27.25l0 -1.19c0,-4.74 -1.89,-12.6 -14.64,-12.6 -7.12,0 -14.53,2.22 -19.43,5.34l-3.56 -11.86c5.34,-3.26 14.68,-6.34 26.1,-6.34 23.1,0 29.77,14.65 29.77,30.51l0 25.91zm0 0l0 0 0 0z"/>
  </g>
  <g>
   <path class="fil1" d="M918.51 121.38l18.2 0 0 72.14 -18.2 0 0 -72.14zm9.01 -10.38c-6.04,0 -10.05,-4.45 -10.05,-9.79 0,-5.63 4.11,-9.94 10.23,-9.94 6.19,0 10.05,4.3 10.2,9.94 0,5.34 -4.01,9.79 -10.2,9.79l-0.19 0zm0 0l0 0 0 0z"/>
  </g>
  <path class="fil1" d="M962.92 193.52l18.24 0 0 -105.36 -18.24 0 0 105.36zm0 0z"/>
  <g>
   <path class="fil1" d="M1045.74 158.22c-12.9,-0.15 -25.21,2.52 -25.21,13.49 0,7.12 4.6,10.38 10.38,10.38 7.41,0 12.6,-4.75 14.38,-9.94 0.45,-1.33 0.45,-2.67 0.45,-4l0 -9.94zm17.76 17.94c0,6.52 0.3,12.9 1.19,17.31l-16.42 0 -1.33 -7.97 -0.45 0c-4.3,5.6 -11.86,9.6 -21.35,9.6 -14.5,0 -22.65,-10.49 -22.65,-21.47 0,-18.09 16.16,-27.4 42.82,-27.25l0 -1.19c0,-4.74 -1.93,-12.6 -14.68,-12.6 -7.12,0 -14.53,2.22 -19.39,5.34l-3.56 -11.86c5.34,-3.26 14.64,-6.34 26.06,-6.34 23.1,0 29.77,14.65 29.77,30.51l0 25.91zm0 0l0 0 0 0z"/>
  </g>
  <g>
   <path class="fil1" d="M1107.5 163.71c0,1.48 0.15,2.96 0.44,4.3 1.93,7.41 8.3,12.75 16.13,12.75 11.42,0 18.39,-9.05 18.39,-23.69 0,-12.75 -6.08,-23.13 -18.24,-23.13 -7.41,0 -14.2,5.34 -16.13,13.35 -0.3,1.33 -0.59,2.97 -0.59,4.75l0 11.68zm-18.24 -75.56l18.24 0 0 43.12 0.3 0c4.45,-6.97 12.27,-11.53 23.1,-11.53 17.65,0 30.21,14.65 30.07,36.59 0,25.91 -16.42,38.81 -32.73,38.81 -9.34,0 -17.61,-3.56 -22.8,-12.46l-0.3 0 -0.89 10.83 -15.57 0c0.3,-4.89 0.59,-12.9 0.59,-20.17l0 -85.19zm0 0l0 0 0 0z"/>
  </g>
  <path class="fil1" d="M1182.43 193.52l18.2 0 0 -105.36 -18.2 0 0 105.36zm0 0z"/>
  <g>
   <path class="fil1" d="M1271.59 149.81c0.15,-6.67 -2.82,-17.65 -14.94,-17.65 -11.27,0 -16.02,10.23 -16.75,17.65l31.7 0zm-31.7 12.72c0.44,13.05 10.67,18.68 22.24,18.68 8.42,0 14.35,-1.33 19.98,-3.26l2.67 12.42c-6.23,2.71 -14.83,4.6 -25.17,4.6 -23.43,0 -37.22,-14.35 -37.22,-36.41 0,-20.02 12.16,-38.81 35.29,-38.81 23.39,0 31.1,19.24 31.1,35.11 0,3.41 -0.3,6.08 -0.59,7.68l-48.3 0zm0 0l0 0 0 0z"/>
  </g>
  <g>
   <path class="fil1" d="M1379.28 181.95c10.34,0 17.61,-10.08 17.61,-24.73 0,-11.27 -5.04,-24.32 -17.46,-24.32 -12.9,0 -18.09,12.61 -18.09,24.62 0,13.9 6.97,24.43 17.76,24.43l0.19 0zm-0.59 13.2c-20.31,0 -36.15,-13.94 -36.15,-37.18 0,-23.73 15.53,-38.22 37.33,-38.22 21.47,0 35.85,15.09 35.85,37.04 0,26.51 -18.68,38.37 -36.89,38.37l-0.15 0zm0 0l0 0 0 0z"/>
  </g>
  <g>
   <path class="fil1" d="M1437.15 142.84c0,-8.3 -0.26,-15.28 -0.56,-21.5l15.83 0 0.89 10.83 0.45 0c3.26,-5.64 11.12,-12.42 23.13,-12.42 12.57,0 25.62,8.12 25.62,30.96l0 42.78 -18.24 0 0 -40.71c0,-10.38 -3.86,-18.24 -13.76,-18.24 -7.27,0 -12.31,5.19 -14.23,10.67 -0.59,1.49 -0.89,3.71 -0.89,5.78l0 42.49 -18.24 0 0 -50.64zm0 0l0 0 0 0z"/>
  </g>
  <g>
   <path class="fil1" d="M1586.48 102.84l0 18.5 17.31 0 0 13.64 -17.31 0 0 31.7c0,8.9 2.37,13.35 9.31,13.35 3.26,0 5.04,-0.15 7.12,-0.74l0.3 13.75c-2.67,1.08 -7.56,1.93 -13.2,1.93 -6.78,0 -12.27,-2.22 -15.68,-5.89 -4,-4.15 -5.78,-10.83 -5.78,-20.32l0 -33.77 -10.23 0 0 -13.64 10.23 0 0 -13.46 17.94 -5.04zm0 0l0 0 0 0z"/>
  </g>
  <g>
   <path class="fil1" d="M1624.08 88.16l18.24 0 0 42.97 0.3 0c2.22,-3.41 5.34,-6.23 9.04,-8.16 3.71,-2.04 7.97,-3.23 12.57,-3.23 12.31,0 25.17,8.12 25.17,31.25l0 42.52 -18.2 0 0 -40.59c0,-10.38 -3.86,-18.39 -13.94,-18.39 -7.08,0 -12.12,4.75 -14.2,10.23 -0.59,1.63 -0.74,3.56 -0.74,5.49l0 43.26 -18.24 0 0 -105.36zm0 0l0 0 0 0z"/>
  </g>
  <g>
   <path class="fil1" d="M1759.91 149.81c0.15,-6.67 -2.82,-17.65 -14.98,-17.65 -11.27,0 -15.98,10.23 -16.72,17.65l31.7 0zm-31.7 12.72c0.44,13.05 10.64,18.68 22.21,18.68 8.45,0 14.38,-1.33 19.98,-3.26l2.71 12.42c-6.23,2.71 -14.83,4.6 -25.21,4.6 -23.39,0 -37.18,-14.35 -37.18,-36.41 0,-20.02 12.16,-38.81 35.26,-38.81 23.39,0 31.1,19.24 31.1,35.11 0,3.41 -0.3,6.08 -0.59,7.68l-48.27 0zm0 0l0 0 0 0z"/>
  </g>
  <path class="fil1" d="M453.25 290.35c-0.48,-49.42 40.45,-73.48 42.34,-74.59 -23.17,-33.81 -59.09,-38.41 -71.74,-38.78 -30.14,-3.15 -59.39,18.09 -74.74,18.09 -15.68,0 -39.37,-17.76 -64.84,-17.24 -32.85,0.52 -63.54,19.54 -80.37,49.01 -34.7,60.17 -8.82,148.55 24.47,197.19 16.68,23.8 36.11,50.42 61.58,49.45 24.91,-1.04 34.22,-15.87 64.28,-15.87 29.81,0 38.56,15.87 64.54,15.27 26.73,-0.44 43.56,-23.91 59.61,-47.97 19.28,-27.28 26.99,-54.16 27.28,-55.53 -0.63,-0.22 -51.9,-19.79 -52.42,-79.04z"/>
  <path class="fil1" d="M404.16 145.03c13.38,-16.76 22.62,-39.6 20.02,-62.73 -19.39,0.89 -43.64,13.42 -57.61,29.81 -12.35,14.46 -23.43,38.15 -20.54,60.39 21.8,1.63 44.15,-10.97 58.13,-27.47z"/>
  <g>
   <path class="fil1" d="M753.91 384.7l-17.2 -53.13c-1.82,-5.41 -5.23,-18.2 -10.27,-38.3l-0.59 0c-2,8.64 -5.26,21.43 -9.68,38.3l-16.91 53.13 54.65 0zm59.46 84.86l-34.74 0 -19.02 -59.76 -66.06 0 -18.13 59.76 -33.81 0 65.54 -203.46 40.41 0 65.8 203.46zm0 0l0 0 0 0z"/>
  </g>
  <g>
   <path class="fil1" d="M948.61 395.6c0,-14.31 -3.23,-26.06 -9.68,-35.33 -7.04,-9.64 -16.5,-14.5 -28.36,-14.5 -8.04,0 -15.38,2.71 -21.87,8.01 -6.52,5.38 -10.83,12.35 -12.86,21.02 -1,4.01 -1.48,7.3 -1.48,9.9l0 24.47c0,10.68 3.26,19.68 9.79,27.03 6.56,7.38 15.05,11.01 25.51,11.01 12.31,0 21.87,-4.71 28.66,-14.2 6.9,-9.45 10.31,-21.91 10.31,-37.41l0 0zm33.22 -1.22c0,24.95 -6.75,44.71 -20.24,59.17 -12.08,12.9 -27.1,19.31 -44.97,19.31 -19.35,0 -33.22,-6.97 -41.67,-20.83l-0.59 0 0 77.3 -32.62 0 0 -158.19c0,-15.68 -0.37,-31.77 -1.19,-48.31l28.66 0 1.82 23.28 0.63 0c10.86,-17.54 27.36,-26.28 49.49,-26.28 17.27,0 31.77,6.86 43.3,20.54 11.57,13.72 17.39,31.7 17.39,54.01z"/>
  </g>
  <g>
   <path class="fil1" d="M1117.33 395.6c0,-14.31 -3.23,-26.06 -9.68,-35.33 -7.04,-9.64 -16.5,-14.5 -28.36,-14.5 -8.04,0 -15.35,2.71 -21.87,8.01 -6.56,5.38 -10.79,12.35 -12.79,21.02 -1.04,4.01 -1.52,7.3 -1.52,9.9l0 24.47c0,10.68 3.23,19.68 9.75,27.03 6.56,7.38 15.05,11.01 25.54,11.01 12.27,0 21.84,-4.71 28.66,-14.2 6.82,-9.45 10.27,-21.91 10.27,-37.41l0 0zm33.18 -1.22c0,24.95 -6.71,44.71 -20.2,59.17 -12.09,12.9 -27.06,19.31 -44.97,19.31 -19.31,0 -33.18,-6.97 -41.67,-20.83l-0.56 0 0 77.3 -32.62 0 0 -158.19c0,-15.68 -0.41,-31.77 -1.19,-48.31l28.66 0 1.82 23.28 0.63 0c10.83,-17.54 27.32,-26.28 49.45,-26.28 17.31,0 31.73,6.86 43.34,20.54 11.57,13.72 17.31,31.7 17.31,54.01z"/>
  </g>
  <path class="fil1" d="M1339.21 412.51c0,17.28 -6,31.36 -18.09,42.26 -13.27,11.86 -31.7,17.79 -55.39,17.79 -21.91,0 -39.48,-4.23 -52.79,-12.68l7.56 -27.14c14.35,8.64 30.03,12.94 47.16,12.94 12.27,0 21.84,-2.74 28.69,-8.27 6.82,-5.56 10.23,-12.98 10.23,-22.24 0,-8.23 -2.78,-15.24 -8.42,-20.87 -5.63,-5.64 -15.01,-10.86 -28.1,-15.72 -35.63,-13.31 -53.42,-32.77 -53.42,-58.35 0,-16.72 6.23,-30.44 18.72,-41.12 12.46,-10.68 29.07,-16.05 49.79,-16.05 18.54,0 33.92,3.26 46.19,9.68l-8.16 26.58c-11.46,-6.23 -24.43,-9.38 -38.93,-9.38 -11.49,0 -20.43,2.82 -26.84,8.45 -5.41,5.04 -8.16,11.2 -8.16,18.43 0,8.04 3.08,14.68 9.34,19.91 5.41,4.82 15.27,10.05 29.58,15.72 17.5,7.04 30.36,15.27 38.63,24.73 8.23,9.45 12.38,21.24 12.38,35.33z"/>
  <g>
   <path class="fil1" d="M1446.94 347.29l-35.92 0 0 71.22c0,18.13 6.34,27.17 19.06,27.17 5.78,0 10.64,-0.48 14.46,-1.48l0.89 24.73c-6.38,2.45 -14.87,3.63 -25.32,3.63 -12.86,0 -22.95,-3.93 -30.21,-11.75 -7.23,-7.86 -10.86,-21.06 -10.86,-39.56l0 -73.96 -21.43 0 0 -24.47 21.43 0 0 -26.84 32 -9.67 0 36.51 35.92 0 0 24.47zm0 0l0 0 0 0z"/>
  </g>
  <g>
   <path class="fil1" d="M1575.25 396.05c0,-13.53 -2.93,-25.1 -8.79,-34.81 -6.78,-11.72 -16.57,-17.57 -29.25,-17.57 -13.09,0 -23.06,5.86 -29.88,17.57 -5.86,9.71 -8.71,21.5 -8.71,35.44 0,13.53 2.85,25.1 8.71,34.77 7.04,11.71 16.91,17.57 29.62,17.57 12.42,0 22.21,-5.93 29.25,-17.87 6.04,-9.86 9.05,-21.58 9.05,-35.11l0 0zm33.81 -1.04c0,22.54 -6.42,41.04 -19.32,55.53 -13.49,14.9 -31.4,22.32 -53.72,22.32 -21.58,0 -38.7,-7.15 -51.49,-21.43 -12.75,-14.27 -19.13,-32.29 -19.13,-54.01 0,-22.76 6.56,-41.37 19.76,-55.83 13.16,-14.53 30.92,-21.76 53.24,-21.76 21.54,0 38.89,7.16 51.94,21.43 12.49,13.94 18.72,31.81 18.72,53.76z"/>
  </g>
  <g>
   <path class="fil1" d="M1715.01 351.52c-3.23,-0.59 -6.64,-0.89 -10.27,-0.89 -11.46,0 -20.35,4.34 -26.58,12.98 -5.41,7.67 -8.12,17.31 -8.12,28.95l0 77 -32.59 0 0.26 -100.5c0,-16.94 -0.41,-32.33 -1.19,-46.23l28.4 0 1.19 28.1 0.85 0c3.45,-9.64 8.9,-17.42 16.31,-23.24 7.27,-5.23 15.12,-7.86 23.58,-7.86 3,0 5.75,0.22 8.16,0.59l0 31.1zm0 0l0 0 0 0z"/>
  </g>
  <path class="fil1" d="M1829.68 380.81c0.22,-9.64 -1.89,-18.02 -6.3,-25.06 -5.64,-9.04 -14.35,-13.6 -25.99,-13.6 -10.64,0 -19.32,4.45 -25.95,13.31 -5.41,7.04 -8.68,15.5 -9.6,25.36l67.85 0zm31.06 8.45c0,5.86 -0.37,10.75 -1.15,14.79l-97.76 0c0.33,14.5 5.08,25.58 14.16,33.22 8.23,6.86 18.91,10.23 31.99,10.23 14.46,0 27.66,-2.3 39.56,-6.93l5.11 22.65c-13.9,6 -30.29,9.08 -49.23,9.08 -22.72,0 -40.59,-6.71 -53.57,-20.13 -12.94,-13.35 -19.46,-31.33 -19.46,-53.87 0,-22.13 6,-40.56 18.13,-55.24 12.64,-15.72 29.77,-23.54 51.27,-23.54 21.13,0 37.18,7.82 48.05,23.54 8.64,12.46 12.9,27.88 12.9,46.19z"/>
 </g>
</svg>
