<?xml version="1.0" encoding="UTF-8"?>
<!DOCTYPE svg PUBLIC "-//W3C//DTD SVG 1.1//EN" "http://www.w3.org/Graphics/SVG/1.1/DTD/svg11.dtd">
<!-- Creator: CorelDRAW 2018 (64-Bit) -->
<svg xmlns="http://www.w3.org/2000/svg" xml:space="preserve" width="128.958mm" height="144.033mm" version="1.1" style="shape-rendering:geometricPrecision; text-rendering:geometricPrecision; image-rendering:optimizeQuality; fill-rule:evenodd; clip-rule:evenodd"
viewBox="0 0 19554.52 21840.42"
 xmlns:xlink="http://www.w3.org/1999/xlink">
 <defs>
  <style type="text/css">
   <![CDATA[
    .fil0 {fill:#A7A7A7}
   ]]>
  </style>
 </defs>
 <g id="Layer_x0020_1">
  <metadata id="CorelCorpID_0Corel-Layer"/>
  <path class="fil0" d="M332.38 2611.19l4027.87 0 -5.34 -69.33 0 -1807.75c0,-403.49 419.5,-734.11 934.98,-734.11 513.69,0 934.98,332.4 934.98,734.11l-0.02 1807.75 -5.34 69.33 6859.46 0 -5.32 -69.33 0 -1807.75c0,-403.49 419.5,-734.11 933.19,-734.11 513.71,0 934.98,332.4 934.98,734.11l0 1807.75 -5.34 69.33 4285.61 0c183.08,0 332.4,149.3 332.4,332.38l0 3459.06c0,183.08 -149.32,332.4 -332.4,332.4l-18889.74 0c-183.08,-1.77 -332.38,-151.09 -332.38,-334.17l0 -3459.06c0,-183.08 149.3,-330.61 332.38,-330.61l0 0zm-248.85 4888.17l19389.22 0c46.22,0 81.76,37.33 81.76,81.78l0 0 0 14177.52c0,44.44 -37.32,81.76 -81.76,81.76l-19389.22 0c-44.44,0 -83.54,-37.32 -83.54,-81.76l0 -14175.74c0,-46.22 37.32,-83.55 83.54,-83.55l0 0 0 0zm17206.42 1878.85l-2435.2 0c-147.54,0 -266.64,111.98 -266.64,248.85l0 2264.57c0,136.87 119.09,248.85 266.64,248.85l2436.98 0c147.54,0 268.41,-111.98 268.41,-248.85l0 -2264.57c-1.77,-136.87 -122.64,-248.85 -270.18,-248.85l0 0zm-15114.27 3940.76l2435.22 0c147.53,0 268.39,111.98 268.39,248.86l0 2264.57c0,136.87 -120.87,248.85 -268.39,248.85l-2351.67 0c-147.54,0 -266.64,-112 -266.64,-248.86l0 -2346.33c0,-136.87 120.88,-248.85 266.64,-248.85l-83.55 81.76 0 0zm0 3942.55l2435.22 0c147.53,0 268.39,111.98 268.39,248.86l0 2264.57c0,136.87 -120.87,248.85 -268.39,248.85l-2353.44 0c-147.54,0 -266.64,-111.98 -266.64,-248.85l0 -2264.58c0,-136.87 120.87,-248.85 266.62,-248.85l-81.76 0 0 0zm0 -7883.3l2435.22 0c147.53,0 268.39,111.98 268.39,248.85l0 2264.57c0,136.87 -120.87,248.85 -268.39,248.85l-2353.44 0c-147.54,0 -266.64,-111.98 -266.64,-248.85l0 -2264.57c0,-136.88 120.87,-248.86 266.62,-248.86l-81.76 0.02 0 0zm4226.95 0l2436.98 0c147.54,0 266.64,111.98 266.64,248.85l0 2264.57c0,136.87 -120.87,248.85 -266.62,248.85l-2436.99 0c-147.53,0 -268.41,-111.98 -268.41,-248.85l0 -2264.57c0,-136.87 120.87,-248.85 268.41,-248.85l0 0 0 0zm0 3940.76l2436.98 0c147.54,0 266.64,111.98 266.64,248.86l0 2264.57c0,136.87 -120.88,248.85 -266.64,248.85l-2436.98 0c-147.54,0 -268.41,-112 -268.41,-248.86l0 -2346.33c0,-136.87 120.87,-248.85 268.41,-248.85l0 81.76 0 0zm0 3942.55l2436.98 0c147.54,0 266.64,111.98 266.64,248.86l0 2264.57c0,136.87 -120.88,248.85 -266.64,248.85l-2436.98 0c-147.54,0 -268.41,-111.98 -268.41,-248.85l0 -2264.58c0,-136.87 120.87,-248.85 268.41,-248.85l0 0 0 0zm4225.16 -7883.3l2436.99 0c147.53,0 268.41,111.98 268.41,248.85l0 2264.57c0,136.87 -120.88,248.85 -268.41,248.85l-2436.98 0c-147.54,0 -268.41,-111.98 -268.41,-248.85l0 -2264.57c1.77,-136.87 120.87,-248.85 268.39,-248.85l0 0 0 0zm0 3940.76l2436.99 0c147.53,0 268.41,111.98 268.41,248.86l0 2264.57c0,136.87 -120.88,248.85 -268.41,248.85l-2436.99 0c-147.53,0 -268.41,-112 -268.41,-248.86l0.02 -2346.33c0,-136.87 120.87,-248.85 268.41,-248.85l-0.02 81.76 0 0zm6662.16 0l-2435.2 0c-147.54,0 -266.64,111.98 -266.64,248.86l0 2264.57c0,136.87 119.09,248.85 266.64,248.85l2436.98 0c147.54,0 268.41,-112 268.41,-248.86l0 -2348.1c0,-136.88 -120.87,-248.86 -268.41,-248.86l-1.77 83.55 0 0zm0 3942.55l-2435.2 0c-147.54,0 -266.64,111.98 -266.64,248.86l0 2264.57c0,136.87 119.09,248.85 266.64,248.85l2436.98 0c147.54,0 268.41,-111.98 268.41,-248.86l0 -2348.1c0,-136.87 -120.87,-248.86 -268.41,-248.86l-1.77 83.55 0 0zm-6662.16 0l2436.99 0c147.53,0 268.41,111.98 268.41,248.86l0 2264.57c0,136.87 -120.88,248.85 -268.41,248.85l-2436.98 0c-147.54,0 -268.41,-111.98 -268.41,-248.85l0 -2264.58c1.77,-136.87 120.87,-248.85 268.39,-248.85l0 0 0 0zm-9381.76 -8780.96l17227.75 0c92.44,0 167.09,78.2 167.09,167.07l0 12046.28c0,88.87 -78.2,167.09 -167.09,167.09l-17393.06 0c-88.87,0 -167.09,-74.65 -167.09,-167.09l0 -11880.97c0,-183.08 149.32,-332.38 332.4,-332.38l0 0 0 0zm12760.83 -3254.65c513.71,0 934.98,-332.4 934.98,-734.11l0 -1805.96 -5.34 -72.89 -1857.52 0 -5.32 72.89 0 1805.96c0,403.5 419.5,734.11 933.19,734.11l0 0 0 0zm-8716.97 0c513.69,0 934.98,-332.4 934.98,-734.11l-0.02 -1805.96 -5.34 -72.89 -1859.28 0 -5.34 72.89 0 1805.96c0,403.5 419.5,734.11 934.98,734.11l0 0z"/>
 </g>
</svg>
