<?xml version="1.0" encoding="UTF-8"?>
<!DOCTYPE svg PUBLIC "-//W3C//DTD SVG 1.1//EN" "http://www.w3.org/Graphics/SVG/1.1/DTD/svg11.dtd">
<!-- Creator: CorelDRAW 2018 (64-Bit) -->
<svg xmlns="http://www.w3.org/2000/svg" xml:space="preserve" width="10.8937mm" height="10.8937mm" version="1.1" style="shape-rendering:geometricPrecision; text-rendering:geometricPrecision; image-rendering:optimizeQuality; fill-rule:evenodd; clip-rule:evenodd"
viewBox="0 0 611.66 611.66"
 xmlns:xlink="http://www.w3.org/1999/xlink">
 <defs>
  <style type="text/css">
   <![CDATA[
    .fil0 {fill:#919191;fill-rule:nonzero}
   ]]>
  </style>
 </defs>
 <g id="Layer_x0020_1">
  <metadata id="CorelCorpID_0Corel-Layer"/>
  <path class="fil0" d="M88.75 596.44c-20.3,20.3 -53.22,20.3 -73.52,0 -20.3,-20.3 -20.3,-53.22 0,-73.52l217.09 -217.09 -217.09 -217.08c-20.3,-20.3 -20.3,-53.22 0,-73.52 20.3,-20.3 53.22,-20.3 73.52,0l217.09 217.08 217.08 -217.08c20.3,-20.3 53.22,-20.3 73.52,0 20.3,20.3 20.3,53.22 0,73.52l-217.08 217.08 217.08 217.09c20.3,20.3 20.3,53.22 0,73.52 -20.3,20.3 -53.22,20.3 -73.52,0l-217.08 -217.09 -217.09 217.09z"/>
 </g>
</svg>
