<?xml version="1.0" encoding="UTF-8"?>
<!DOCTYPE svg PUBLIC "-//W3C//DTD SVG 1.1//EN" "http://www.w3.org/Graphics/SVG/1.1/DTD/svg11.dtd">
<!-- Creator: CorelDRAW 2018 (64-Bit) -->
<svg xmlns="http://www.w3.org/2000/svg" xml:space="preserve" width="128.749mm" height="128.748mm" version="1.1" style="shape-rendering:geometricPrecision; text-rendering:geometricPrecision; image-rendering:optimizeQuality; fill-rule:evenodd; clip-rule:evenodd"
viewBox="0 0 10218.29 10218.25"
 xmlns:xlink="http://www.w3.org/1999/xlink">
 <defs>
  <style type="text/css">
   <![CDATA[
    .fil0 {fill:red;fill-rule:nonzero}
   ]]>
  </style>
 </defs>
 <g id="Layer_x0020_1">
  <metadata id="CorelCorpID_0Corel-Layer"/>
  <path class="fil0" d="M5427.05 4473.33c0,0 0,11.37 0,11.37 0,-11.37 0,-11.37 0,-11.37zm4791.24 635.82c0,2827.04 -2282.07,5109.1 -5109.15,5109.1 -2827.04,0 -5109.14,-2282.07 -5109.14,-5109.1 0,-2827.08 2282.11,-5109.15 5109.14,-5109.15 2827.08,0 5109.15,2282.07 5109.15,5109.15zm-624.45 0c0,-2475.13 -2009.61,-4473.34 -4484.7,-4473.34 -2463.72,0 -4473.33,1998.21 -4473.33,4473.34 0,0 0,11.32 0,11.32 0,2475.13 2009.61,4473.37 4484.7,4473.37 2475.09,-11.36 4473.33,-2009.6 4473.33,-4484.69zm-4484.7 -1600.9c352,0 635.82,-283.82 635.82,-635.77 0,-351.99 -283.82,-635.81 -635.82,-635.81 -351.95,0 -635.81,283.82 -635.81,635.81 0,351.95 283.86,635.77 635.81,635.77zm635.82 3837.56l-90.85 0 -227.06 0 0 -2849.76c0,0 0,-11.36 0,-11.36 0,0 0,-11.37 0,-11.37 0,0 0,11.37 0,11.37 0,0 0,-11.37 0,-11.37 0,-181.65 -147.61,-317.91 -317.91,-317.91l-635.81 0c-181.65,0 -317.91,147.61 -317.91,317.91 0,181.65 147.61,317.91 317.91,317.91l317.91 0 0 113.53 0 2441.05 -158.94 0 -158.97 0c-181.65,0 -317.91,147.57 -317.91,317.91 0,181.65 147.61,317.86 317.91,317.86l635.81 0 635.82 0c181.65,0 317.91,-147.57 317.91,-317.86 0,-181.7 -136.26,-317.91 -317.91,-317.91z"/>
 </g>
</svg>
