<?xml version="1.0" encoding="UTF-8"?>
<!DOCTYPE svg PUBLIC "-//W3C//DTD SVG 1.1//EN" "http://www.w3.org/Graphics/SVG/1.1/DTD/svg11.dtd">
<!-- Creator: CorelDRAW 2018 (64-Bit) -->
<svg xmlns="http://www.w3.org/2000/svg" xml:space="preserve" width="212.231mm" height="212.231mm" version="1.1" style="shape-rendering:geometricPrecision; text-rendering:geometricPrecision; image-rendering:optimizeQuality; fill-rule:evenodd; clip-rule:evenodd"
viewBox="0 0 4269.68 4269.68"
 xmlns:xlink="http://www.w3.org/1999/xlink">
 <defs>
  <style type="text/css">
   <![CDATA[
    .fil0 {fill:#919191;fill-rule:nonzero}
   ]]>
  </style>
 </defs>
 <g id="Layer_x0020_1">
  <metadata id="CorelCorpID_0Corel-Layer"/>
  <path class="fil0" d="M2846.46 3676.68c-594.2,0 -1110.12,-336.83 -1367.49,-830.22l1367.49 0 0 -474.41 -1521.66 0c-11.87,-77.09 -20.16,-156.56 -20.16,-237.2 0,-80.65 8.31,-160.11 20.16,-237.2l1521.66 0 0 -474.41 -1367.49 0c257.37,-493.38 772.1,-830.22 1367.49,-830.22 383.08,0 732.96,139.95 1002.18,371.23l421.04 -418.66c-377.15,-338.02 -876.47,-545.58 -1423.23,-545.58 -928.66,0 -1717.36,594.2 -2010.31,1423.23l-836.15 0 0 474.41 725.85 0c-9.48,78.28 -14.23,156.56 -14.23,237.2 0,80.65 4.75,158.92 14.23,237.2l-725.85 0 0 474.41 836.15 0c292.95,829.03 1081.65,1423.23 2010.31,1423.23 546.75,0 1046.07,-207.56 1423.23,-545.58l-421.04 -419.85c-269.22,231.27 -619.1,372.42 -1002.18,372.42z"/>
 </g>
</svg>
