<?xml version="1.0" encoding="UTF-8"?>
<!DOCTYPE svg PUBLIC "-//W3C//DTD SVG 1.1//EN" "http://www.w3.org/Graphics/SVG/1.1/DTD/svg11.dtd">
<!-- Creator: CorelDRAW 2018 (64-Bit) -->
<svg xmlns="http://www.w3.org/2000/svg" xml:space="preserve" width="128.749mm" height="128.748mm" version="1.1" style="shape-rendering:geometricPrecision; text-rendering:geometricPrecision; image-rendering:optimizeQuality; fill-rule:evenodd; clip-rule:evenodd"
viewBox="0 0 9088.57 9088.53"
 xmlns:xlink="http://www.w3.org/1999/xlink">
 <defs>
  <style type="text/css">
   <![CDATA[
    .fil0 {fill:#707070;fill-rule:nonzero}
   ]]>
  </style>
 </defs>
 <g id="Layer_x0020_1">
  <metadata id="CorelCorpID_0Corel-Layer"/>
  <path class="fil0" d="M4827.04 3978.77c0,0 0,10.11 0,10.11 0,-10.11 0,-10.11 0,-10.11zm4261.53 565.52c0,2514.48 -2029.77,4544.25 -4544.29,4544.25 -2514.48,0 -4544.28,-2029.77 -4544.28,-4544.25 0,-2514.52 2029.8,-4544.29 4544.28,-4544.29 2514.52,0 4544.29,2029.77 4544.29,4544.29zm-555.41 0c0,-2201.49 -1787.43,-3978.77 -3988.88,-3978.77 -2191.33,0 -3978.77,1777.29 -3978.77,3978.77 0,0 0,10.07 0,10.07 0,2201.48 1787.43,3978.8 3988.88,3978.8 2201.44,-10.1 3978.77,-1787.42 3978.77,-3988.87zm-3988.88 -1423.91c313.08,0 565.52,-252.44 565.52,-565.48 0,-313.07 -252.44,-565.52 -565.52,-565.52 -313.04,0 -565.52,252.44 -565.52,565.52 0,313.04 252.48,565.48 565.52,565.48zm565.52 3413.29l-80.81 0 -201.96 0 0 -2534.69c0,0 0,-10.1 0,-10.1 0,0 0,-10.11 0,-10.11 0,0 0,10.11 0,10.11 0,0 0,-10.11 0,-10.11 0,-161.57 -131.29,-282.76 -282.76,-282.76l-565.52 0c-161.57,0 -282.76,131.29 -282.76,282.76 0,161.57 131.29,282.76 282.76,282.76l282.76 0 0 100.97 0 2171.17 -141.37 0 -141.39 0c-161.57,0 -282.76,131.26 -282.76,282.76 0,161.57 131.29,282.72 282.76,282.72l565.52 0 565.52 0c161.57,0 282.76,-131.25 282.76,-282.72 0,-161.61 -121.19,-282.76 -282.76,-282.76z"/>
 </g>
</svg>
