<?xml version="1.0" encoding="UTF-8"?>
<!DOCTYPE svg PUBLIC "-//W3C//DTD SVG 1.1//EN" "http://www.w3.org/Graphics/SVG/1.1/DTD/svg11.dtd">
<!-- Creator: CorelDRAW 2018 (64-Bit) -->
<svg xmlns="http://www.w3.org/2000/svg" xml:space="preserve" width="86.32mm" height="86.32mm" version="1.1" style="shape-rendering:geometricPrecision; text-rendering:geometricPrecision; image-rendering:optimizeQuality; fill-rule:evenodd; clip-rule:evenodd"
viewBox="0 0 351.09 351.09"
 xmlns:xlink="http://www.w3.org/1999/xlink">
 <defs>
  <style type="text/css">
   <![CDATA[
    .str0 {stroke:blue;stroke-width:10.17;stroke-miterlimit:22.9256}
    .fil0 {fill:none}
    .fil1 {fill:blue;fill-rule:nonzero}
   ]]>
  </style>
 </defs>
 <g id="Layer_x0020_1">
  <metadata id="CorelCorpID_0Corel-Layer"/>
  <path class="fil0 str0" d="M30.91 5.08l289.26 0c14.2,0 25.83,11.62 25.83,25.83l0 289.26c0,14.2 -11.62,25.83 -25.83,25.83l-289.26 0c-14.2,0 -25.83,-11.62 -25.83,-25.83l0 -289.26c0,-14.2 11.62,-25.83 25.83,-25.83z"/>
  <path class="fil1" d="M122.02 118.15l0 -32.13 57.18 0 0 32.13 -9.31 0 -38.34 50.75 37.45 64.93 10.19 0 0 31.25 -57.4 0 0 -31.25 9.75 0 -19.5 -37.9 -8.64 12.19 0 25.71 12.63 0 0 31.25 -60.72 0 -0.22 -31.25 13.3 0 0 -116.13 -12.85 0 0 -31.69 60.5 0 0 32.13 -12.41 0 0 35.9 27.48 -35.9 -9.09 0zm138.95 84.22l35.02 0 0 46.54 -16.18 16.18 -76.9 0 -16.84 -16.84 0 -147.82 14.85 -14.41 78.9 0 16.18 15.96 0 34.57 -34.79 0 0 -18.39 -40.56 0 0 115.68 40.33 0 0 -31.47z"/>
 </g>
</svg>
