<?xml version="1.0" encoding="UTF-8"?>
<!DOCTYPE svg PUBLIC "-//W3C//DTD SVG 1.1//EN" "http://www.w3.org/Graphics/SVG/1.1/DTD/svg11.dtd">
<!-- Creator: CorelDRAW 2018 (64-Bit) -->
<svg xmlns="http://www.w3.org/2000/svg" xml:space="preserve" width="101.153mm" height="101.153mm" version="1.1" style="shape-rendering:geometricPrecision; text-rendering:geometricPrecision; image-rendering:optimizeQuality; fill-rule:evenodd; clip-rule:evenodd"
viewBox="0 0 1499.93 1499.93"
 xmlns:xlink="http://www.w3.org/1999/xlink">
 <defs>
  <style type="text/css">
   <![CDATA[
    .fil0 {fill:#919191;fill-rule:nonzero}
   ]]>
  </style>
 </defs>
 <g id="Layer_x0020_1">
  <metadata id="CorelCorpID_0Corel-Layer"/>
  <path class="fil0" d="M217.62 1462.59c-49.77,49.78 -130.52,49.78 -180.29,0 -49.77,-49.77 -49.77,-130.51 0,-180.29l532.36 -532.36 -532.36 -532.33c-49.77,-49.77 -49.77,-130.52 0,-180.29 49.77,-49.77 130.52,-49.77 180.29,0l532.36 532.33 532.33 -532.33c49.77,-49.77 130.51,-49.77 180.29,0 49.78,49.77 49.78,130.52 0,180.29l-532.33 532.33 532.33 532.36c49.78,49.77 49.78,130.51 0,180.29 -49.77,49.78 -130.51,49.78 -180.29,0l-532.33 -532.35 -532.36 532.35z"/>
 </g>
</svg>
