<svg xmlns="http://www.w3.org/2000/svg" xmlns:xlink="http://www.w3.org/1999/xlink" width="382.062" height="166.666" viewBox="0 0 382.062 166.666">
  <defs>
    <clipPath id="clip-path">
      <path id="Path_25" data-name="Path 25" d="M1006.61,62.464a52.814,52.814,0,0,0-52.754,52.754h9.775a42.978,42.978,0,1,1,85.957,0h9.776A52.813,52.813,0,0,0,1006.61,62.464Z" transform="translate(-953.856 -62.464)" fill="none"/>
    </clipPath>
  </defs>
  <g id="Group_422" data-name="Group 422" transform="translate(-402.5 -373.371)">
    <g id="Group_36" data-name="Group 36" transform="translate(403 373.871)">
      <g id="Group_25" data-name="Group 25" transform="translate(0.993 0.761)">
        <g id="Group_35" data-name="Group 35" transform="translate(0 0)">
          <path id="Path_26" data-name="Path 26" d="M1170.9,227.821a52.983,52.983,0,0,1-31.479-10.588l-1.144,7.726h-7.154V62.416h9.157V130.81c2.289-1.718,12.877-9.444,31.193-9.444,27.186,0,50.366,23.18,50.366,53.227S1198.946,227.821,1170.9,227.821Zm-1.431-98.156a48.594,48.594,0,0,0-29.189,10.017v69.253c3.148,2.289,14.309,10.588,29.189,10.588,24.038,0,42.925-19.745,42.925-44.928S1193.8,129.665,1169.47,129.665Z" transform="translate(-1011.252 -62.416)" fill="#173151"/>
          <path id="Path_27" data-name="Path 27" d="M1326.078,149.857c22.894,0,42.067,18.315,42.067,47.5v4.865H1284.87v1.716c.573,26.9,20.032,44.07,43.212,44.07a69.8,69.8,0,0,0,37.2-10.874v8.585c-2.861,1.716-16.025,10.3-38.061,10.3-28.044,0-51.51-21.177-51.51-52.942C1275.713,171.605,1299.465,149.857,1326.078,149.857Zm33.482,45.214c0-21.748-14.88-37.2-34.053-37.2-23.467,0-37.489,18.6-40.064,37.2Z" transform="translate(-1058.363 -90.907)" fill="#173151"/>
          <path id="Path_28" data-name="Path 28" d="M1479.9,229.412c0-12.592-16.311-19.173-24.9-23.753-8.012-4.292-26.327-12.877-26.327-29.476,0-15.453,12.019-26.327,31.765-26.327a55.07,55.07,0,0,1,24.9,6.01v8.585c-4.579-2.575-14.881-6.868-24.325-6.868-15.453,0-23.179,8.013-23.179,18.029,0,12.306,14.594,18.315,22.893,22.608,8.013,4.007,28.045,12.877,28.045,30.62,0,16.884-13.164,27.472-33.2,27.472a53.646,53.646,0,0,1-26.328-6.869v-8.871c2.575,1.145,14.022,7.727,26.328,7.727C1470.458,248.3,1479.9,240.858,1479.9,229.412Z" transform="translate(-1108.203 -90.907)" fill="#173151"/>
          <g id="Group_13" data-name="Group 13" transform="translate(0 0.032)">
            <path id="Path_22" data-name="Path 22" d="M1096.269,255.109V154.091h9.157V255.109Z" transform="translate(-999.896 -92.318)" fill="#173151"/>
            <g id="Group_12" data-name="Group 12">
              <path id="Path_23" data-name="Path 23" d="M1026.579,154.216h9.73L999.393,255.234h-9.158L953.319,154.216h9.73L994.814,243.5Z" transform="translate(-953.319 -92.359)" fill="#173151"/>
              <path id="Path_24" data-name="Path 24" d="M1082.686,165.824l-31.764,89.285h-9.73l36.916-101.018h9.157" transform="translate(-981.95 -92.318)" fill="#173151"/>
              <g id="Group_11" data-name="Group 11" transform="translate(0.362)">
                <g id="Group_10" data-name="Group 10" clip-path="url(#clip-path)">
                  <rect id="Rectangle_13" data-name="Rectangle 13" width="988.665" height="569.109" transform="translate(-28.328 -510.221)" fill="none"/>
                </g>
              </g>
            </g>
          </g>
        </g>
      </g>
      <g id="Group_21" data-name="Group 21" transform="translate(0)">
        <path id="Path_29" data-name="Path 29" d="M42.088,230.9l-.052-1.6c-.028-.523-.02-1.167,0-1.927q.014-.57.029-1.225.046-.653.1-1.387a43.674,43.674,0,0,1,1.1-7.022,46.593,46.593,0,0,1,3.057-8.79,47.22,47.22,0,0,1,5.875-9.459,46.584,46.584,0,0,1,4.145-4.542,45.555,45.555,0,0,1,4.95-4.166,47.973,47.973,0,0,1,12.074-6.421,49.971,49.971,0,0,1,6.87-1.919,49.37,49.37,0,0,1,14.467-.752,51.038,51.038,0,0,1,7.2,1.22,50.293,50.293,0,0,1,13.276,5.377,48.962,48.962,0,0,1,5.736,3.882,50.785,50.785,0,0,1,4.991,4.434,51.917,51.917,0,0,1,12.051,19.3,50.877,50.877,0,0,1,2.111,7.94l.28,1.6c.075.5.129.978.186,1.419.116.883.2,1.636.237,2.248l.136,1.88,4.121,0s-.061-.7-.175-2.021c-.049-.657-.153-1.467-.29-2.415-.068-.474-.135-.983-.224-1.523L144,223.316a54.74,54.74,0,0,0-2.4-8.5,56.455,56.455,0,0,0-4.969-10.168,55.74,55.74,0,0,0-8.236-10.273,54.015,54.015,0,0,0-5.388-4.634,52.113,52.113,0,0,0-6.161-4.024,53.189,53.189,0,0,0-14.153-5.46,53.725,53.725,0,0,0-7.62-1.157,51.766,51.766,0,0,0-15.184,1.058,52.12,52.12,0,0,0-7.157,2.139,49.924,49.924,0,0,0-12.468,6.93,47.281,47.281,0,0,0-5.058,4.425,47.809,47.809,0,0,0-13.027,23.772,44.623,44.623,0,0,0-.971,7.214q-.036.751-.068,1.42,0,.669,0,1.251c0,.776,0,1.433.043,1.966.058,1.062.089,1.629.089,1.629Z" transform="translate(-41.141 -178.953)" fill="#577954" stroke="#577954" stroke-width="1"/>
        <path id="Path_30" data-name="Path 30" d="M43.643,233.032l-.015-1.569c-.016-.513.005-1.144.041-1.888q.025-.558.055-1.2.059-.638.124-1.355a42.713,42.713,0,0,1,1.221-6.83,45.356,45.356,0,0,1,13.125-21.811,43.89,43.89,0,0,1,4.842-3.907,46.024,46.024,0,0,1,11.68-5.913,47.843,47.843,0,0,1,6.583-1.7,46.954,46.954,0,0,1,13.749-.447,48.428,48.428,0,0,1,6.78,1.283,47.39,47.39,0,0,1,12.4,5.294,45.817,45.817,0,0,1,5.312,3.739,47.522,47.522,0,0,1,4.593,4.234,48.358,48.358,0,0,1,10.9,18.149,47.018,47.018,0,0,1,1.825,7.382q.124.784.234,1.483l.148,1.314c.093.817.161,1.514.182,2.08.063,1.133.1,1.737.1,1.737l4.12,0-.136-1.879c-.035-.612-.121-1.365-.237-2.248-.057-.441-.111-.915-.186-1.419l-.28-1.6a50.872,50.872,0,0,0-2.111-7.941,51.916,51.916,0,0,0-12.051-19.3,50.793,50.793,0,0,0-4.991-4.434,48.974,48.974,0,0,0-5.736-3.882,50.3,50.3,0,0,0-13.276-5.377,51.039,51.039,0,0,0-7.2-1.22,49.367,49.367,0,0,0-14.467.753,49.967,49.967,0,0,0-6.87,1.919,47.975,47.975,0,0,0-12.074,6.421,45.558,45.558,0,0,0-4.95,4.166,46.592,46.592,0,0,0-4.145,4.542,47.22,47.22,0,0,0-5.875,9.459A46.591,46.591,0,0,0,44,219.872a43.674,43.674,0,0,0-1.1,7.022q-.051.734-.1,1.387-.015.654-.029,1.225c-.019.76-.027,1.4,0,1.927l.052,1.6Z" transform="translate(-41.88 -181.083)" fill="#577954" stroke="#577954" stroke-width="1"/>
        <path id="Path_31" data-name="Path 31" d="M45.186,235.146s.008-.536.022-1.54c0-.5.032-1.122.084-1.849q.037-.545.081-1.171.072-.623.153-1.323a41.711,41.711,0,0,1,1.345-6.638,43.692,43.692,0,0,1,9.142-16.782,43.427,43.427,0,0,1,4.033-4.049,42,42,0,0,1,4.735-3.648,44.03,44.03,0,0,1,11.286-5.4,45.577,45.577,0,0,1,6.3-1.478,44.467,44.467,0,0,1,13.031-.141,45.793,45.793,0,0,1,6.361,1.346,44.519,44.519,0,0,1,11.519,5.211,42.732,42.732,0,0,1,4.887,3.6,44.252,44.252,0,0,1,4.2,4.033,44.8,44.8,0,0,1,9.743,17,43.114,43.114,0,0,1,1.539,6.823q.1.722.188,1.365.059.647.111,1.21c.07.752.121,1.392.129,1.913.037,1.041.057,1.6.057,1.6l4.121,0-.1-1.737c-.021-.566-.09-1.263-.182-2.08l-.148-1.314q-.111-.7-.234-1.483a47.017,47.017,0,0,0-1.825-7.382,48.359,48.359,0,0,0-10.9-18.149,47.52,47.52,0,0,0-4.593-4.233,45.814,45.814,0,0,0-5.312-3.74,47.392,47.392,0,0,0-12.4-5.294,48.419,48.419,0,0,0-6.78-1.283,46.951,46.951,0,0,0-13.749.447,47.84,47.84,0,0,0-6.583,1.7,46.024,46.024,0,0,0-11.68,5.913,43.894,43.894,0,0,0-4.842,3.907,45.1,45.1,0,0,0-4.089,4.3,45.859,45.859,0,0,0-5.88,9.034,45.4,45.4,0,0,0-3.156,8.481,42.712,42.712,0,0,0-1.221,6.83q-.065.717-.124,1.355-.029.639-.055,1.2c-.036.743-.058,1.375-.041,1.888l.015,1.569Z" transform="translate(-42.608 -183.195)" fill="#577954" stroke="#577954" stroke-width="1"/>
        <path id="Path_32" data-name="Path 32" d="M46.706,237.236s.02-.526.058-1.51c.008-.492.058-1.1.126-1.809q.049-.533.106-1.144.085-.607.181-1.29a40.643,40.643,0,0,1,1.47-6.445A42.336,42.336,0,0,1,57.9,208.99a41.687,41.687,0,0,1,3.976-3.8A40.241,40.241,0,0,1,66.5,201.8a42.039,42.039,0,0,1,10.892-4.9,43.312,43.312,0,0,1,6.009-1.257,42.009,42.009,0,0,1,12.314.163,43.18,43.18,0,0,1,5.94,1.409,41.588,41.588,0,0,1,10.641,5.128,39.607,39.607,0,0,1,4.462,3.456,41.019,41.019,0,0,1,3.8,3.833,41.218,41.218,0,0,1,8.589,15.858,39.241,39.241,0,0,1,1.254,6.264l.142,1.249q.039.59.073,1.105c.048.686.081,1.27.075,1.745l.017,1.454,4.12,0s-.02-.555-.057-1.6c-.008-.521-.059-1.161-.129-1.913q-.051-.564-.111-1.21-.088-.642-.188-1.365a43.117,43.117,0,0,0-1.539-6.823,44.8,44.8,0,0,0-9.743-17,44.242,44.242,0,0,0-4.2-4.033,42.725,42.725,0,0,0-4.887-3.6,44.52,44.52,0,0,0-11.519-5.211,45.794,45.794,0,0,0-6.361-1.346,44.462,44.462,0,0,0-13.031.141,45.573,45.573,0,0,0-6.3,1.478,44.033,44.033,0,0,0-11.286,5.4,42,42,0,0,0-4.735,3.648,43.435,43.435,0,0,0-4.033,4.049,43.692,43.692,0,0,0-9.142,16.782,41.711,41.711,0,0,0-1.345,6.638q-.081.7-.153,1.323-.043.625-.081,1.171c-.052.727-.088,1.345-.084,1.849-.014,1-.022,1.54-.022,1.54Z" transform="translate(-43.312 -185.285)" fill="#577954" stroke="#577954" stroke-width="1"/>
        <path id="Path_33" data-name="Path 33" d="M48.208,239.315l.094-1.48c.02-.483.084-1.075.169-1.77q.062-.52.132-1.117.1-.593.21-1.258a39.558,39.558,0,0,1,1.6-6.253,40.964,40.964,0,0,1,9.353-15.313,40.061,40.061,0,0,1,3.92-3.557,38.416,38.416,0,0,1,4.519-3.13,39.971,39.971,0,0,1,10.5-4.388,41.089,41.089,0,0,1,5.723-1.036,39.528,39.528,0,0,1,11.6.469,40.421,40.421,0,0,1,5.521,1.472A38.629,38.629,0,0,1,111.3,207a36.533,36.533,0,0,1,4.038,3.313,37.7,37.7,0,0,1,3.4,3.633,38.416,38.416,0,0,1,4.861,7.607,38.013,38.013,0,0,1,2.573,7.105,35.337,35.337,0,0,1,.968,5.7q.051.6.1,1.131.019.535.035,1c.025.621.041,1.148.021,1.577-.015.856-.022,1.312-.022,1.312l4.121,0-.017-1.454c.006-.475-.028-1.059-.075-1.745q-.033-.515-.073-1.105l-.142-1.249a39.244,39.244,0,0,0-1.254-6.264,41.219,41.219,0,0,0-8.589-15.858,41.019,41.019,0,0,0-3.8-3.833,39.607,39.607,0,0,0-4.462-3.456,41.587,41.587,0,0,0-10.641-5.128,43.2,43.2,0,0,0-5.94-1.409,42.011,42.011,0,0,0-12.314-.163,43.321,43.321,0,0,0-6.009,1.257,42.039,42.039,0,0,0-10.892,4.9,40.233,40.233,0,0,0-4.627,3.389,41.681,41.681,0,0,0-3.976,3.8,42.337,42.337,0,0,0-9.247,16.047,40.65,40.65,0,0,0-1.47,6.445q-.1.682-.181,1.29-.057.612-.106,1.144c-.069.711-.119,1.317-.127,1.809-.038.985-.058,1.51-.058,1.51Z" transform="translate(-43.999 -187.363)" fill="#577954" stroke="#577954" stroke-width="1"/>
        <path id="Path_34" data-name="Path 34" d="M49.71,241.376s.046-.5.131-1.451c.031-.473.11-1.052.211-1.731.049-.338.1-.7.159-1.091l.238-1.226a38.505,38.505,0,0,1,1.719-6.06,40.453,40.453,0,0,1,3.556-7.245,39.943,39.943,0,0,1,5.9-7.335,38.449,38.449,0,0,1,3.864-3.31,36.632,36.632,0,0,1,4.412-2.871,37.9,37.9,0,0,1,10.1-3.879,38.8,38.8,0,0,1,5.436-.816,41.624,41.624,0,0,1,5.5-.014,41.141,41.141,0,0,1,5.382.788,37.591,37.591,0,0,1,5.1,1.535,35.658,35.658,0,0,1,8.885,4.962,33.283,33.283,0,0,1,3.613,3.172,34.413,34.413,0,0,1,3,3.432,34.81,34.81,0,0,1,4.186,7.075A34.136,34.136,0,0,1,123.2,231.8a31.361,31.361,0,0,1,.682,5.147q.027.536.05,1.014,0,.479,0,.9c0,.555,0,1.026-.033,1.41-.04.763-.061,1.171-.061,1.171l4.12,0s.008-.456.022-1.312c.02-.429,0-.957-.021-1.577q-.016-.467-.035-1-.045-.533-.1-1.131a35.341,35.341,0,0,0-.968-5.7,38.015,38.015,0,0,0-2.573-7.1A38.415,38.415,0,0,0,119.427,216a37.7,37.7,0,0,0-3.4-3.633,36.531,36.531,0,0,0-4.038-3.313,38.627,38.627,0,0,0-9.763-5.045,40.409,40.409,0,0,0-5.521-1.472,39.523,39.523,0,0,0-11.6-.469,41.085,41.085,0,0,0-5.723,1.036,39.968,39.968,0,0,0-10.5,4.388,38.413,38.413,0,0,0-4.519,3.13,40.061,40.061,0,0,0-3.92,3.557A40.965,40.965,0,0,0,51.1,229.5a39.559,39.559,0,0,0-1.6,6.253q-.111.665-.21,1.258-.07.6-.132,1.117c-.085.695-.149,1.287-.169,1.77l-.094,1.48Z" transform="translate(-44.685 -189.423)" fill="#577954" stroke="#577954" stroke-width="1"/>
        <path id="Path_35" data-name="Path 35" d="M51.212,243.4s.059-.495.168-1.421c.043-.463.136-1.029.254-1.692q.086-.5.184-1.064.126-.562.267-1.193a37.408,37.408,0,0,1,1.845-5.868,39.139,39.139,0,0,1,3.656-6.936,38.414,38.414,0,0,1,5.907-6.91,36.693,36.693,0,0,1,3.807-3.064,34.748,34.748,0,0,1,4.3-2.612,35.789,35.789,0,0,1,9.711-3.371,36.452,36.452,0,0,1,5.148-.6,39.184,39.184,0,0,1,5.16.166,38.331,38.331,0,0,1,5,.915,34.819,34.819,0,0,1,4.681,1.6,32.625,32.625,0,0,1,8.007,4.879,30.059,30.059,0,0,1,3.188,3.029,31.172,31.172,0,0,1,6.118,9.773,30.306,30.306,0,0,1,1.615,5.879,27.5,27.5,0,0,1,.4,4.588q0,.474,0,.9c-.015.282-.028.547-.041.793-.02.49-.039.9-.086,1.242-.066.671-.1,1.029-.1,1.029l4.121,0s.021-.407.061-1.171c.033-.384.035-.855.033-1.41q0-.418,0-.9-.024-.478-.05-1.014a31.362,31.362,0,0,0-.682-5.147,34.132,34.132,0,0,0-2.095-6.491,34.808,34.808,0,0,0-4.186-7.075,34.415,34.415,0,0,0-3-3.432,33.282,33.282,0,0,0-3.613-3.172,35.658,35.658,0,0,0-8.885-4.962,37.58,37.58,0,0,0-5.1-1.535,41.149,41.149,0,0,0-5.382-.788,41.619,41.619,0,0,0-5.5.014,38.808,38.808,0,0,0-5.436.816,37.9,37.9,0,0,0-10.1,3.879,36.629,36.629,0,0,0-4.412,2.871,38.449,38.449,0,0,0-3.864,3.31,39.946,39.946,0,0,0-5.9,7.335,40.457,40.457,0,0,0-3.556,7.245,38.506,38.506,0,0,0-1.719,6.06l-.238,1.226q-.085.582-.159,1.091c-.1.679-.18,1.258-.211,1.731-.086.946-.131,1.451-.131,1.451Z" transform="translate(-45.372 -191.448)" fill="#577954" stroke="#577954" stroke-width="1"/>
      </g>
    </g>
  </g>
</svg>
