<?xml version="1.0" encoding="UTF-8"?>
<!DOCTYPE svg PUBLIC "-//W3C//DTD SVG 1.1//EN" "http://www.w3.org/Graphics/SVG/1.1/DTD/svg11.dtd">
<!-- Creator: CorelDRAW 2018 (64-Bit) -->
<svg xmlns="http://www.w3.org/2000/svg" xml:space="preserve" width="49.025mm" height="49.0256mm" version="1.1" style="shape-rendering:geometricPrecision; text-rendering:geometricPrecision; image-rendering:optimizeQuality; fill-rule:evenodd; clip-rule:evenodd"
viewBox="0 0 117.41 117.41"
 xmlns:xlink="http://www.w3.org/1999/xlink">
 <defs>
  <style type="text/css">
   <![CDATA[
    .fil0 {fill:red}
    .fil1 {fill:white;fill-rule:nonzero}
   ]]>
  </style>
 </defs>
 <g id="Layer_x0020_1">
  <metadata id="CorelCorpID_0Corel-Layer"/>
  <path class="fil0" d="M9.7 91.05c-15.31,-23.13 -12.46,-54.6 8.21,-74.56 23.32,-22.53 60.48,-21.88 83.01,1.43 22.53,23.32 21.88,60.48 -1.43,83.01 -21.17,20.45 -53.74,21.8 -76.42,4.44l-5.63 1.4 -13.18 3.29 3.74 -13.06 1.71 -5.95z"/>
  <path class="fil1" d="M63.78 90.86l-8.12 0 0 -51.69c-1.95,1.88 -4.52,3.74 -7.69,5.6 -3.17,1.86 -6.03,3.26 -8.55,4.18l0 -7.84c4.54,-2.12 8.5,-4.71 11.9,-7.75 3.4,-3.03 5.81,-5.97 7.23,-8.83l5.23 0 0 66.33z"/>
 </g>
</svg>
