<?xml version="1.0" encoding="UTF-8"?>
<!DOCTYPE svg PUBLIC "-//W3C//DTD SVG 1.1//EN" "http://www.w3.org/Graphics/SVG/1.1/DTD/svg11.dtd">
<!-- Creator: CorelDRAW 2018 (64-Bit) -->
<svg xmlns="http://www.w3.org/2000/svg" xml:space="preserve" width="56.7266mm" height="56.7266mm" version="1.1" style="shape-rendering:geometricPrecision; text-rendering:geometricPrecision; image-rendering:optimizeQuality; fill-rule:evenodd; clip-rule:evenodd"
viewBox="0 0 1095.4 1095.4"
 xmlns:xlink="http://www.w3.org/1999/xlink">
 <defs>
  <style type="text/css">
   <![CDATA[
    .fil1 {fill:#A7A7A7}
    .fil0 {fill:#F2F2F2}
   ]]>
  </style>
 </defs>
 <g id="Layer_x0020_1">
  <metadata id="CorelCorpID_0Corel-Layer"/>
  <circle class="fil0" cx="547.7" cy="547.7" r="547.7"/>
  <path class="fil1" d="M554.09 543.16c0,32.4 -4.02,61.39 -12.07,86.97 -8.05,25.59 -20.02,47.36 -36.01,65.1 -15.89,17.85 -35.59,31.47 -59.01,40.86 -23.52,9.39 -50.66,14.03 -81.5,14.03 -30.43,0 -56.95,-4.02 -79.54,-11.97 -22.7,-7.94 -41.58,-20.01 -56.74,-36.42 -15.06,-16.3 -26.41,-37.04 -33.94,-62.21 -7.53,-25.17 -11.35,-54.99 -11.35,-89.45 0,-31.57 4.02,-60.04 12.07,-85.32 8.05,-25.28 20.01,-46.74 36.01,-64.48 15.89,-17.75 35.59,-31.37 59.01,-40.75 23.52,-9.49 50.76,-14.24 81.81,-14.24 29.61,0 55.71,3.92 78.41,11.76 22.59,7.84 41.58,19.91 56.74,36.31 15.27,16.3 26.72,36.83 34.46,61.7 7.74,24.97 11.66,54.27 11.66,88.11zm-83.57 4.02c0,-20.53 -1.65,-39.2 -4.85,-56.02 -3.2,-16.82 -8.67,-31.26 -16.4,-43.23 -7.74,-11.97 -18.05,-21.25 -30.95,-27.86 -12.9,-6.5 -28.99,-9.8 -48.28,-9.8 -19.5,0 -35.8,3.72 -48.8,11.04 -13.1,7.33 -23.73,17.23 -31.78,29.51 -8.05,12.28 -13.72,26.62 -17.02,43.02 -3.3,16.51 -4.95,33.84 -4.95,52.2 0,21.36 1.65,40.55 4.85,57.57 3.2,17.02 8.67,31.57 16.3,43.75 7.63,12.07 17.85,21.25 30.74,27.65 12.9,6.29 29.09,9.49 48.59,9.49 19.5,0 35.8,-3.61 48.8,-10.94 13.1,-7.22 23.73,-17.12 31.77,-29.61 8.05,-12.48 13.72,-27.03 17.02,-43.64 3.3,-16.61 4.95,-34.35 4.95,-53.13zm440.95 185.91c0,2.17 -0.41,4.02 -1.24,5.57 -0.83,1.55 -2.68,2.78 -5.68,3.82 -3.1,0.93 -7.43,1.65 -13.31,2.06 -5.88,0.41 -13.83,0.62 -23.83,0.62 -8.46,0 -15.17,-0.2 -20.22,-0.62 -5.06,-0.41 -9.08,-1.14 -11.97,-2.27 -2.89,-1.13 -4.95,-2.48 -6.19,-4.23 -1.14,-1.75 -2.17,-3.82 -2.99,-6.19l-35.28 -87.59c-4.23,-9.9 -8.36,-18.78 -12.38,-26.41 -4.02,-7.74 -8.56,-14.14 -13.51,-19.29 -4.95,-5.16 -10.73,-8.98 -17.23,-11.66 -6.4,-2.58 -13.93,-3.92 -22.39,-3.92l-24.86 0 0 149.49c0,1.96 -0.62,3.82 -1.96,5.36 -1.34,1.65 -3.51,2.99 -6.5,4.02 -2.99,0.93 -7.02,1.75 -12.07,2.37 -4.95,0.62 -11.45,0.93 -19.19,0.93 -7.63,0 -14.03,-0.31 -19.19,-0.93 -5.16,-0.62 -9.18,-1.44 -12.18,-2.37 -2.99,-1.03 -5.16,-2.37 -6.29,-3.92 -1.24,-1.65 -1.86,-3.51 -1.86,-5.47l0 -355.32c0,-8.87 2.27,-15.27 6.81,-19.19 4.54,-3.92 10.11,-5.88 16.71,-5.88l101.31 0c10.21,0 18.78,0.21 25.38,0.62 6.6,0.41 12.69,0.93 18.16,1.45 15.68,2.27 29.82,6.09 42.4,11.56 12.59,5.36 23.32,12.48 32.09,21.25 8.77,8.77 15.48,19.09 20.12,31.05 4.64,11.97 6.91,25.69 6.91,41.27 0,13 -1.65,24.97 -4.95,35.7 -3.4,10.83 -8.25,20.43 -14.75,28.89 -6.4,8.46 -14.34,15.79 -23.83,21.98 -9.49,6.29 -20.33,11.24 -32.4,15.17 5.88,2.78 11.35,6.19 16.51,10.21 5.16,4.02 10.01,8.98 14.55,14.75 4.54,5.78 8.87,12.28 12.9,19.71 4.02,7.32 7.94,15.68 11.76,24.97l33.12 77.28c2.99,7.63 5.05,13.21 5.98,16.82 1.03,3.51 1.55,6.29 1.55,8.36zm-102.76 -265.66c0,-12.9 -2.89,-23.83 -8.77,-32.6 -5.88,-8.87 -15.48,-15.17 -28.78,-18.78 -4.02,-1.03 -8.56,-1.75 -13.72,-2.37 -5.16,-0.62 -12.28,-0.93 -21.36,-0.93l-35.7 0 0 110.8 40.55 0c11.35,0 21.15,-1.34 29.61,-4.13 8.56,-2.68 15.58,-6.5 21.25,-11.45 5.68,-4.85 9.9,-10.83 12.69,-17.64 2.79,-6.81 4.23,-14.44 4.23,-22.91z"/>
 </g>
</svg>
