<?xml version="1.0" encoding="UTF-8"?>
<!DOCTYPE svg PUBLIC "-//W3C//DTD SVG 1.1//EN" "http://www.w3.org/Graphics/SVG/1.1/DTD/svg11.dtd">
<!-- Creator: CorelDRAW 2018 (64-Bit) -->
<svg xmlns="http://www.w3.org/2000/svg" xml:space="preserve" width="56.7266mm" height="56.7266mm" version="1.1" style="shape-rendering:geometricPrecision; text-rendering:geometricPrecision; image-rendering:optimizeQuality; fill-rule:evenodd; clip-rule:evenodd"
viewBox="0 0 607.29 607.29"
 xmlns:xlink="http://www.w3.org/1999/xlink">
 <defs>
  <style type="text/css">
   <![CDATA[
    .fil1 {fill:#FEFEFE}
    .fil0 {fill:#D99E7E}
   ]]>
  </style>
 </defs>
 <g id="Layer_x0020_1">
  <metadata id="CorelCorpID_0Corel-Layer"/>
  <circle class="fil0" cx="303.64" cy="303.64" r="303.64"/>
  <path class="fil1" d="M307.19 301.13c0,17.96 -2.23,34.03 -6.69,48.22 -4.46,14.18 -11.1,26.25 -19.96,36.09 -8.81,9.9 -19.73,17.45 -32.72,22.65 -13.04,5.21 -28.08,7.78 -45.19,7.78 -16.87,0 -31.57,-2.23 -44.1,-6.64 -12.58,-4.4 -23.05,-11.1 -31.46,-20.19 -8.35,-9.04 -14.64,-20.53 -18.82,-34.49 -4.18,-13.96 -6.29,-30.49 -6.29,-49.59 0,-17.5 2.23,-33.29 6.69,-47.3 4.46,-14.01 11.1,-25.91 19.96,-35.75 8.81,-9.84 19.73,-17.39 32.72,-22.59 13.04,-5.26 28.14,-7.89 45.36,-7.89 16.42,0 30.89,2.17 43.47,6.52 12.53,4.35 23.05,11.04 31.46,20.13 8.46,9.04 14.81,20.42 19.1,34.2 4.29,13.84 6.46,30.09 6.46,48.85zm-46.33 2.23c0,-11.38 -0.92,-21.73 -2.69,-31.06 -1.77,-9.32 -4.8,-17.33 -9.09,-23.97 -4.29,-6.64 -10.01,-11.78 -17.16,-15.44 -7.15,-3.6 -16.07,-5.43 -26.77,-5.43 -10.81,0 -19.85,2.06 -27.05,6.12 -7.26,4.06 -13.16,9.55 -17.62,16.36 -4.46,6.81 -7.61,14.76 -9.44,23.85 -1.83,9.15 -2.74,18.76 -2.74,28.94 0,11.84 0.91,22.48 2.69,31.92 1.77,9.44 4.8,17.5 9.04,24.25 4.23,6.69 9.89,11.78 17.04,15.33 7.15,3.49 16.13,5.26 26.94,5.26 10.81,0 19.85,-2 27.06,-6.06 7.26,-4 13.15,-9.49 17.62,-16.42 4.46,-6.92 7.61,-14.98 9.44,-24.19 1.83,-9.21 2.75,-19.05 2.75,-29.46zm244.46 103.07c0,1.2 -0.23,2.23 -0.69,3.09 -0.46,0.86 -1.49,1.54 -3.15,2.12 -1.72,0.51 -4.12,0.92 -7.38,1.14 -3.26,0.23 -7.67,0.34 -13.21,0.34 -4.69,0 -8.41,-0.11 -11.21,-0.34 -2.8,-0.23 -5.03,-0.63 -6.63,-1.26 -1.6,-0.63 -2.75,-1.37 -3.43,-2.34 -0.63,-0.97 -1.2,-2.12 -1.66,-3.43l-19.56 -48.56c-2.35,-5.49 -4.63,-10.41 -6.86,-14.64 -2.23,-4.29 -4.75,-7.84 -7.49,-10.7 -2.75,-2.86 -5.95,-4.98 -9.55,-6.46 -3.55,-1.43 -7.72,-2.17 -12.41,-2.17l-13.78 0 0 82.88c0,1.09 -0.34,2.12 -1.09,2.97 -0.74,0.92 -1.94,1.66 -3.6,2.23 -1.66,0.51 -3.89,0.97 -6.69,1.31 -2.74,0.34 -6.35,0.51 -10.64,0.51 -4.23,0 -7.78,-0.17 -10.64,-0.51 -2.86,-0.34 -5.09,-0.8 -6.75,-1.31 -1.66,-0.57 -2.86,-1.32 -3.49,-2.17 -0.69,-0.92 -1.03,-1.95 -1.03,-3.03l0 -196.99c0,-4.92 1.26,-8.47 3.78,-10.64 2.52,-2.17 5.61,-3.26 9.27,-3.26l56.17 0c5.66,0 10.41,0.11 14.07,0.34 3.66,0.23 7.04,0.51 10.07,0.8 8.69,1.26 16.53,3.37 23.51,6.41 6.98,2.97 12.93,6.92 17.79,11.78 4.86,4.86 8.58,10.58 11.15,17.22 2.57,6.64 3.83,14.24 3.83,22.88 0,7.21 -0.92,13.84 -2.75,19.79 -1.89,6 -4.58,11.33 -8.18,16.01 -3.55,4.69 -7.95,8.75 -13.21,12.18 -5.26,3.49 -11.27,6.23 -17.96,8.41 3.26,1.54 6.29,3.43 9.15,5.66 2.86,2.23 5.55,4.98 8.06,8.18 2.52,3.2 4.92,6.81 7.15,10.92 2.23,4.06 4.4,8.69 6.52,13.84l18.36 42.84c1.66,4.23 2.8,7.32 3.32,9.32 0.57,1.94 0.86,3.49 0.86,4.63zm-56.97 -147.28c0,-7.15 -1.6,-13.21 -4.86,-18.07 -3.26,-4.92 -8.58,-8.41 -15.96,-10.41 -2.23,-0.57 -4.75,-0.97 -7.61,-1.32 -2.86,-0.34 -6.81,-0.51 -11.84,-0.51l-19.79 0 0 61.43 22.48 0c6.29,0 11.73,-0.74 16.42,-2.29 4.75,-1.49 8.64,-3.6 11.78,-6.35 3.15,-2.69 5.49,-6.01 7.04,-9.78 1.54,-3.78 2.34,-8.01 2.34,-12.7z"/>
 </g>
</svg>
