<?xml version="1.0" encoding="UTF-8"?>
<!DOCTYPE svg PUBLIC "-//W3C//DTD SVG 1.1//EN" "http://www.w3.org/Graphics/SVG/1.1/DTD/svg11.dtd">
<!-- Creator: CorelDRAW 2018 (64-Bit) -->
<svg xmlns="http://www.w3.org/2000/svg" xml:space="preserve" width="100.906mm" height="29.7754mm" version="1.1" style="shape-rendering:geometricPrecision; text-rendering:geometricPrecision; image-rendering:optimizeQuality; fill-rule:evenodd; clip-rule:evenodd"
viewBox="0 0 10488.19 3094.87"
 xmlns:xlink="http://www.w3.org/1999/xlink">
 <defs>
  <style type="text/css">
   <![CDATA[
    .fil0 {fill:black}
    .fil1 {fill:white}
    .fil7 {fill:black;fill-opacity:0.121569}
    .fil6 {fill:black;fill-opacity:0.200000}
    .fil8 {fill:white;fill-opacity:0.250980}
    .fil2 {fill:url(#id0)}
    .fil5 {fill:url(#id1)}
    .fil3 {fill:url(#id2)}
    .fil4 {fill:url(#id3)}
   ]]>
  </style>
  <linearGradient id="id0" gradientUnits="userSpaceOnUse" x1="3245.36" y1="2583.55" x2="3133.46" y2="2525.67">
   <stop offset="0" style="stop-opacity:1; stop-color:#00A0FF"/>
   <stop offset="0.0117647" style="stop-opacity:1; stop-color:#00A1FF"/>
   <stop offset="0.258824" style="stop-opacity:1; stop-color:#00BEFF"/>
   <stop offset="0.509804" style="stop-opacity:1; stop-color:#00D2FF"/>
   <stop offset="0.760784" style="stop-opacity:1; stop-color:#00DFFF"/>
   <stop offset="1" style="stop-opacity:1; stop-color:#00E3FF"/>
  </linearGradient>
  <linearGradient id="id1" gradientUnits="userSpaceOnUse" x1="3202.91" y1="2620.86" x2="3255.01" y2="2554.13">
   <stop offset="0" style="stop-opacity:1; stop-color:#32A071"/>
   <stop offset="0.0705882" style="stop-opacity:1; stop-color:#2DA771"/>
   <stop offset="0.470588" style="stop-opacity:1; stop-color:#15CF74"/>
   <stop offset="0.8" style="stop-opacity:1; stop-color:#06E775"/>
   <stop offset="1" style="stop-opacity:1; stop-color:#00F076"/>
  </linearGradient>
  <linearGradient id="id2" gradientUnits="userSpaceOnUse" x1="3252.26" y1="2458.14" x2="3054.55" y2="2458.14">
   <stop offset="0" style="stop-opacity:1; stop-color:#FFE000"/>
   <stop offset="0.411765" style="stop-opacity:1; stop-color:#FFBD00"/>
   <stop offset="0.780392" style="stop-opacity:1; stop-color:orange"/>
   <stop offset="1" style="stop-opacity:1; stop-color:#FF9C00"/>
  </linearGradient>
  <linearGradient id="id3" gradientUnits="userSpaceOnUse" x1="3293.6" y1="2478.41" x2="3175.9" y2="2327.69">
   <stop offset="0" style="stop-opacity:1; stop-color:#FF3A44"/>
   <stop offset="1" style="stop-opacity:1; stop-color:#C31162"/>
  </linearGradient>
 </defs>
 <g id="Layer_x0020_1">
  <metadata id="CorelCorpID_0Corel-Layer"/>
  <path class="fil0" d="M10099.6 3094.87l-9711.01 0c-214.17,0 -388.59,-174.42 -388.59,-386.86l0 -2321.15c0,-213.2 174.42,-386.86 388.59,-386.86l9711.01 0c213.98,0 388.59,173.65 388.59,386.86l0 2321.15c0,212.43 -174.61,386.86 -388.59,386.86z"/>
  <path class="fil1" d="M5525.22 1023.78c-70.03,0 -129.07,-24.51 -175.77,-72.75 -46.31,-46.89 -72.16,-111.52 -71,-177.51 0,-70.42 23.93,-130.05 71,-177.31 46.5,-48.24 105.54,-72.75 175.59,-72.75 69.27,0 128.3,24.51 175.77,72.75 47.07,48.81 71,108.43 71,177.31 -0.77,70.62 -24.7,130.24 -71,177.32 -46.5,48.62 -105.54,72.93 -175.59,72.93zm-2084.01 0c-68.5,0 -127.92,-24.12 -176.54,-71.78 -48.24,-47.46 -72.75,-107.47 -72.75,-178.28 0,-70.81 24.51,-130.82 72.75,-178.29 47.66,-47.66 107.08,-71.77 176.54,-71.77 33.96,0 66.96,6.76 98.6,20.46 31.07,13.31 56.34,31.44 75.06,53.63l4.64 5.6 -52.29 51.33 -5.4 -6.37c-29.52,-35.12 -69.07,-52.29 -121.36,-52.29 -46.69,0 -87.4,16.6 -120.98,49.4 -33.77,32.99 -50.94,76.21 -50.94,128.5 0,52.28 17.17,95.5 50.94,128.5 33.57,32.8 74.29,49.39 120.98,49.39 49.78,0 91.64,-16.59 124.26,-49.39 19.29,-19.3 31.25,-46.31 35.5,-80.46l-167.67 -0.01 0 -72.16 239.63 0 0.97 6.56c1.74,12.15 3.47,24.7 3.47,36.28 0,66.56 -20.07,120.39 -59.82,160.14 -45.14,47.07 -104.19,71.01 -175.58,71.01zm2770.9 -10.23l-73.89 0 -226.33 -362.17 1.93 65.22 0 296.75 -73.9 0 0 -479.48 84.32 0 2.32 3.67 212.82 341.13 -1.93 -65.03 0 -279.78 74.67 0 0 479.67zm-1242.19 0l-74.86 0 0 -407.51 -129.85 0 0 -72.17 334.38 0 0 72.17 -129.85 0 0 407.51 0.19 0zm-265.68 0l-74.67 0 0 -479.67 74.67 0 0 479.67zm-419.66 0l-74.67 0 0 -407.51 -129.85 0 0 -72.17 334.38 0 0 72.17 -129.85 0 0 407.51zm-251.8 -0.78l-286.33 0 0 -478.89 286.33 0 0 72.17 -211.47 0 0 131.59 190.82 0 0 71.39 -190.82 0.01 0 131.59 211.47 0 0 72.16zm1371.46 -111.33c33.39,33.39 73.9,50.17 120.98,50.17 48.44,0 87.99,-16.4 120.98,-50.17 32.8,-32.79 49.4,-75.82 49.4,-127.73 0,-51.9 -16.6,-95.12 -49.21,-127.72 -33.39,-33.39 -74.09,-50.17 -120.98,-50.17 -48.44,0 -87.99,16.4 -120.79,50.17 -32.79,32.79 -49.39,75.82 -49.39,127.72 0,51.91 16.4,95.13 49.01,127.73l0 0z"/>
  <path class="fil1" d="M5271.5 1683.26c-182.33,0 -330.14,138.34 -330.14,329.17 0,189.09 148.76,329.17 330.14,329.17 182.33,0 330.14,-139.31 330.14,-329.17 -0.01,-190.82 -147.8,-329.17 -330.14,-329.17zm0 527.9c-99.75,0 -185.62,-82.58 -185.62,-199.5 0,-118.66 86.05,-199.5 185.62,-199.5 99.75,0 185.62,80.84 185.62,199.5 0.19,117.7 -85.87,199.5 -185.62,199.5zm-720.28 -527.9c-182.33,0 -330.14,138.34 -330.14,329.17 0,189.09 148.76,329.17 330.14,329.17 182.33,0 330.14,-139.31 330.14,-329.17 0,-190.82 -147.99,-329.17 -330.14,-329.17zm0 527.9c-99.75,0 -185.62,-82.58 -185.62,-199.5 0,-118.66 86.05,-199.5 185.62,-199.5 99.75,0 185.62,80.84 185.62,199.5 0,117.7 -85.87,199.5 -185.62,199.5zm-857.07 -427.37l0 139.31 334.38 -0.01c-10.22,78.15 -36.08,135.84 -75.63,175.4 -49.01,49.01 -124.65,102.26 -257.97,102.26 -205.49,0 -366.21,-165.93 -366.21,-371.42 0,-205.49 160.72,-371.43 366.21,-371.43 110.94,0 191.78,43.8 251.8,99.76l98.78 -98.8c-83.36,-79.88 -194.3,-141.04 -349.81,-141.04 -281.9,0 -518.45,229.6 -518.45,510.72 0,281.9 236.36,510.73 518.45,510.73 152.23,0 266.45,-49.78 356.75,-143.55 92.04,-92.03 121.17,-221.89 121.17,-326.65 0,-32.62 -2.5,-61.94 -7.72,-86.83l-471.94 0c0.19,-0.19 0.19,1.55 0.19,1.55zm3505.65 108.44c-27.59,-73.9 -110.94,-209.74 -281.89,-209.74 -169.41,0 -310.26,133.32 -310.26,329.17 0,184.85 139.31,329.17 326.66,329.17 150.5,0 238.1,-92.04 274.17,-146.07l-111.72 -74.86c-37.04,54.98 -88.57,91.07 -161.69,91.07 -73.9,0 -125.61,-33.57 -159.95,-99.75l440.1 -182.34c0.01,0.2 -15.44,-36.65 -15.44,-36.65zm-448.78 109.97c-3.47,-127.15 98.78,-191.78 171.91,-191.78 57.7,0 105.74,28.37 122.14,69.65l-294.05 122.13zm-357.53 318.94l144.52 0 0 -967.04 -144.52 0 0 967.04zm-237.33 -564.75l-5.21 0c-32.61,-38.78 -94.54,-73.9 -173.65,-73.9 -164.19,0 -315.47,144.52 -315.47,330.14 0,184.84 150.5,327.62 315.47,327.62 78.14,0 141.05,-35.31 173.65,-74.86l5.21 0 0 47.27c0,125.61 -67.15,193.33 -175.39,193.33 -88.57,0 -143.55,-63.67 -165.94,-116.92l-125.6 52.48c36.08,86.83 132.36,194.3 291.34,194.3 169.41,0 312.96,-99.75 312.96,-343.06l0 -590.61 -136.61 0 0 54.22c0.2,0 -0.77,0 -0.77,0zm-165.93 454.77c-99.75,0 -183.11,-83.35 -183.11,-198.54 0,-116.15 83.36,-200.28 183.11,-200.28 98.78,0 175.39,85.1 175.39,200.28 0.97,115.19 -76.41,198.54 -175.39,198.54zm1886.25 -857.06l-345.57 0 0 967.04 144.52 0 0 -366.2 201.24 0c159.95,0 317.21,-115.97 317.21,-300.03 0,-184.07 -156.67,-300.8 -317.39,-300.8zm4.24 465.77l-205.49 0 0 -331.86 205.49 0c108.24,0 169.41,89.33 169.41,165.93 0,75.82 -61.94,165.93 -169.41,165.93zm892.38 -138.34c-104.96,0 -213.2,46.5 -257.97,147.8l128.12 53.25c27.59,-53.25 78.14,-71.39 131.59,-71.39 74.87,0 150.5,44.76 152.23,124.65l0 10.23c-25.85,-14.67 -82.58,-37.05 -150.5,-37.05 -138.34,0 -278.61,75.64 -278.61,217.45 0,129.85 113.45,213.21 239.83,213.21 97.05,0 150.5,-43.8 183.88,-94.54l5.21 0 0 74.86 139.31 0 0 -370.45c0,-172.5 -128.12,-268.01 -293.09,-268.01zm-18.14 529.64c-47.27,0 -113.45,-23.15 -113.45,-82.58 0,-74.86 82.58,-103.22 153,-103.22 63.67,0 93.77,13.7 131.59,32.61 -10.41,86.83 -83.73,152.43 -171.14,153.2zm819.44 -508.99l-165.93 419.46 -5.22 0 -171.91 -419.46 -155.52 0 257.97 586.36 -147.02 325.89 150.5 0 396.89 -912.25c0,0 -159.76,0 -159.76,0zm-1300.84 618.96l144.52 0 0 -967.04 -144.52 0 0 967.04z"/>
  <path class="fil2" d="M807.29 582.89c-22.39,24.12 -35.32,60.97 -35.32,109.21l0 1710.86c0,48.24 12.93,85.1 36.09,108.24l5.98 5.22 958.56 -958.56 0 -21.42 -959.33 -958.76c0,0 -5.98,5.21 -5.98,5.21z"/>
  <path class="fil3" d="M2091.54 1878.34l-319.71 -319.71 0 -22.39 319.71 -319.71 6.95 4.24 378.18 214.95c108.24,60.97 108.24,161.69 0,223.43l-378.18 214.95c0,-0.01 -6.95,4.24 -6.95,4.24z"/>
  <path class="fil4" d="M2098.49 1874.09l-326.66 -326.65 -964.54 964.55c35.31,37.81 94.53,42.05 160.72,5.21l1130.48 -643.1z"/>
  <path class="fil5" d="M2098.49 1220.77l-1130.48 -642.12c-66.19,-37.81 -125.61,-32.61 -160.73,5.21l964.55 963.58 326.66 -326.66z"/>
  <path class="fil6" d="M2091.54 1867.14l-1122.75 637.88c-62.71,36.09 -118.66,33.57 -154.75,0.77l-5.98 5.99 5.98 5.21c36.09,32.61 92.04,35.31 154.75,-0.77l1130.48 -642.13c0,0 -7.72,-6.94 -7.72,-6.94z"/>
  <path class="fil7" d="M2476.67 1647.96l-386.1 219.18 6.95 6.95 378.18 -214.95c54.22,-30.87 80.84,-71.39 80.84,-111.72 -3.28,37.04 -30.87,72.17 -79.88,100.53z"/>
  <path class="fil8" d="M968.02 589.84l1508.64 857.07c49.01,27.59 76.6,63.66 80.84,100.52 0,-40.33 -26.62,-80.84 -80.84,-111.72l-1508.64 -857.07c-108.24,-61.94 -196.04,-10.23 -196.04,113.45l0 11.19c0,-123.88 87.8,-174.62 196.04,-113.45z"/>
 </g>
</svg>
