<?xml version="1.0" encoding="UTF-8"?>
<!DOCTYPE svg PUBLIC "-//W3C//DTD SVG 1.1//EN" "http://www.w3.org/Graphics/SVG/1.1/DTD/svg11.dtd">
<!-- Creator: CorelDRAW 2018 (64-Bit) -->
<svg xmlns="http://www.w3.org/2000/svg" xml:space="preserve" width="56.7266mm" height="56.7266mm" version="1.1" style="shape-rendering:geometricPrecision; text-rendering:geometricPrecision; image-rendering:optimizeQuality; fill-rule:evenodd; clip-rule:evenodd"
viewBox="0 0 3141.89 3141.89"
 xmlns:xlink="http://www.w3.org/1999/xlink">
 <defs>
  <style type="text/css">
   <![CDATA[
    .fil1 {fill:#A7A7A7}
    .fil0 {fill:#F2F2F2}
   ]]>
  </style>
 </defs>
 <g id="Layer_x0020_1">
  <metadata id="CorelCorpID_0Corel-Layer"/>
  <circle class="fil0" cx="1570.94" cy="1570.94" r="1570.94"/>
  <path class="fil1" d="M2418.33 1572.84c0,34.76 -1.9,63.82 -5.69,87.2 -3.79,23.38 -8.85,42.34 -16.43,56.88 -7.58,13.9 -16.43,24.02 -25.91,30.33 -10.11,6.32 -20.22,9.48 -31.6,9.48l-576.3 0 0 627.48c0,12.01 -3.16,23.38 -9.48,32.22 -5.69,9.48 -16.43,17.7 -30.97,24.01 -15.16,6.96 -34.76,12.01 -59.4,15.81 -24.64,3.79 -55.6,5.68 -92.26,5.68 -37.28,0 -68.24,-1.89 -92.89,-5.68 -24.64,-3.79 -44.23,-8.85 -59.4,-15.81 -14.54,-6.31 -25.28,-14.53 -32.23,-24.01 -6.95,-8.85 -10.11,-20.22 -10.11,-32.22l0 -627.48 -572.5 0c-11.38,0 -21.49,-3.16 -30.97,-9.48 -8.85,-6.31 -17.06,-16.43 -24.65,-30.33 -7.58,-14.53 -13.27,-33.49 -17.7,-56.88 -4.42,-23.38 -6.32,-52.45 -6.32,-87.2 0,-33.49 1.9,-62.56 5.69,-86.57 3.79,-24.01 8.85,-42.97 15.8,-57.5 6.32,-13.9 14.53,-24.02 22.75,-30.33 8.85,-6.32 18.32,-9.48 29.7,-9.48l578.2 0 0 -627.48c0,-12.01 3.16,-23.38 10.11,-34.13 6.95,-10.74 17.69,-18.95 32.23,-25.9 15.16,-6.96 34.76,-12.01 59.4,-15.81 24.65,-3.79 55.61,-5.68 92.89,-5.68 36.65,0 67.62,1.89 92.26,5.68 24.65,3.79 44.24,8.85 59.4,15.81 14.53,6.95 25.27,15.16 30.97,25.9 6.32,10.75 9.48,22.12 9.48,34.13l0 627.48 581.98 0c9.48,0 18.95,3.16 28.44,9.48 9.48,6.31 17.69,16.43 24.01,30.33 6.95,14.53 12.01,33.49 15.8,57.5 3.79,24.01 5.69,53.08 5.69,86.57z"/>
 </g>
</svg>
