<?xml version="1.0" encoding="UTF-8"?>
<!DOCTYPE svg PUBLIC "-//W3C//DTD SVG 1.1//EN" "http://www.w3.org/Graphics/SVG/1.1/DTD/svg11.dtd">
<!-- Creator: CorelDRAW 2018 (64-Bit) -->
<svg xmlns="http://www.w3.org/2000/svg" xml:space="preserve" width="240.804mm" height="236.606mm" version="1.1" style="shape-rendering:geometricPrecision; text-rendering:geometricPrecision; image-rendering:optimizeQuality; fill-rule:evenodd; clip-rule:evenodd"
viewBox="0 0 830.64 816.16"
 xmlns:xlink="http://www.w3.org/1999/xlink">
 <defs>
  <style type="text/css">
   <![CDATA[
    .str0 {stroke:#C3C3C3;stroke-width:3.45;stroke-miterlimit:22.9256}
    .fil1 {fill:black}
    .fil0 {fill:#F6F6F6}
   ]]>
  </style>
 </defs>
 <g id="Layer_x0020_1">
  <metadata id="CorelCorpID_0Corel-Layer"/>
  <path class="fil0 str0" d="M136.67 1.72l40.91 0 25.85 0 58.63 0c22.37,0 40.67,18.3 40.67,40.67l0 0c0,22.37 -18.3,40.67 -40.67,40.67l-48.41 0 -36.07 0 -42.47 0c-11.8,0 -21.45,9.65 -21.45,21.45l0 42.04 0 64.82 0 37.84c0,20.76 -16.99,37.75 -37.75,37.75 -20.76,0 -37.75,-16.99 -37.75,-37.75l0 -37.84 0 -64.82 0 -46.33c0,-54.17 44.32,-98.5 98.5,-98.5zm-94.28 446.28l745.87 0c22.36,0 40.66,-18.3 40.66,-40.67l0 0c0,-22.37 -18.3,-40.67 -40.66,-40.67l-745.87 0c-22.36,0 -40.66,18.3 -40.66,40.67l0 0c0,22.37 18.3,40.67 40.66,40.67zm526.2 366.43l18.75 0 0 0 106.64 0c54.17,0 98.5,-44.32 98.5,-98.5l0 -46.17 0 -72.85 0 -29.81c0,-20.76 -16.99,-37.75 -37.75,-37.75 -20.76,0 -37.75,16.99 -37.75,37.75l0 37.84 0 64.82 0 41.89c0,11.8 -9.65,21.45 -21.45,21.45l-42.47 0 -62.09 0 -22.39 0c-22.37,0 -40.67,18.3 -40.67,40.67l0 0c0,22.37 18.3,40.67 40.67,40.67zm-339.77 0l33.23 0c22.37,0 40.67,-18.3 40.67,-40.67l0 0c0,-22.37 -18.3,-40.67 -40.67,-40.67l-32.34 0 -52.13 0 -42.47 0c-11.8,0 -21.45,-9.65 -21.45,-21.45l0 -41.89 0 -75.04 0 -27.62c0,-20.76 -16.99,-37.75 -37.75,-37.75 -20.76,0 -37.75,16.99 -37.75,37.75l0 29.08 0 73.58 0 46.17c0,54.17 44.32,98.5 98.5,98.5l92.15 0 0 -0zm339.77 -731.38l23.91 0 60.57 0 42.47 0c11.8,0 21.45,9.65 21.45,21.45l0 42.04 0 57.52 0 45.14c0,20.76 16.99,37.75 37.75,37.75 20.76,0 37.75,-16.99 37.75,-37.75l0 -45.14 0 -57.52 0 -46.33c0,-54.17 -44.32,-98.5 -98.5,-98.5l-40.91 0 -56.25 0 -28.23 0c-22.37,0 -40.67,18.3 -40.67,40.67l0 0c0,22.37 18.3,40.67 40.67,40.67z"/>
  <path class="fil1" d="M469.4 373.67l19.66 0 0 -49.16 -19.66 0 0 49.16zm-39.33 39.33l19.66 0 0 -29.5 -19.66 0 0 29.5zm9.83 39.33l49.16 0 0 -19.66 -49.16 0 0 19.66zm186.81 0l29.5 0 0 -19.66 -29.5 0 0 19.66zm-39.33 39.33l19.66 0 0 -19.66 -19.66 0 0 19.66zm-108.15 78.66l29.5 0 0 -19.66 -29.5 0 0 19.66zm58.99 -29.5l19.66 0 0 -19.66 -19.66 0 0 19.66zm9.83 -39.33l19.66 0 0 -29.5 -19.66 0 0 29.5zm-68.82 29.5l39.33 0 0 -19.66 -39.33 0 0 19.66zm-226.14 0l19.66 0 0 -19.66 -19.66 0 0 19.66zm334.29 137.65l-19.66 0 0 19.66 29.5 0c5.43,0 9.83,-4.4 9.83,-9.83l0 -78.66 -19.66 0 0 68.82zm-137.65 19.66l88.49 0 0 -19.66 -88.49 0 0 19.66zm0 -39.33l68.82 0 0 -19.66 -68.82 0 0 19.66zm-19.66 -285.13l19.66 0 0 -39.33 -19.66 0 0 39.33zm-88.49 -29.5l68.82 0c5.43,0 9.83,-4.4 9.83,-9.83l0 -78.66 -19.66 0 0 68.82 -58.99 0 0 19.66zm-9.83 -186.81l147.48 0 0 -19.66 -157.31 0c-5.43,0 -9.83,4.4 -9.83,9.83l0 49.16 19.66 -0 0 -39.33zm147.48 117.98l39.33 0c5.43,0 9.83,-4.4 9.83,-9.83l-0 -127.82 -19.66 0 0 117.98 -29.5 0 0 19.66zm147.48 98.32l19.66 0 0 -19.66 -19.66 0 0 19.66zm49.16 -19.66l19.66 0 0 -49.16 -19.66 0 0 49.16zm-49.16 -29.5l29.5 0 0 -19.66 -29.5 0 0 19.66zm-39.33 98.32l49.16 0 0 -19.66 -49.16 0 0 19.66zm-29.5 39.33l49.16 0 0 -19.66 -39.33 0 0 -58.99 -19.66 0 0 68.82c0,5.43 4.4,9.83 9.83,9.83zm-147.48 117.98l39.33 0 0 -19.66 -39.33 0 0 19.66zm-19.66 117.98l19.66 0 0 -88.49 -19.66 0 0 88.49zm-98.32 0l68.82 0 0 -19.66 -68.82 0 0 19.66zm294.96 -108.15l68.82 0 0 -19.66 -68.82 0 0 19.66zm-19.66 68.82l0 -49.16c0,-5.43 -4.4,-9.83 -9.83,-9.83l-108.15 0 0 19.66 98.32 0 0 39.33 19.66 0zm127.82 -117.98c0,-5.43 -4.4,-9.83 -9.83,-9.83l-108.15 0 0 19.66 98.32 0 0 58.99 19.66 0 0 -68.82zm-68.82 117.98l19.66 0 0 -39.33 -19.66 0 0 39.33zm0 39.33l29.5 0 0 -19.66 -29.5 0 0 19.66zm49.16 0l19.66 0 0 -68.82 -19.66 0 0 68.82zm-432.61 -235.97l19.66 0 0 -19.66 -19.66 0 0 19.66zm108.15 -19.66l19.66 0 0 -19.66 -19.66 0 0 19.66zm98.32 98.32l0 -49.16c0,-5.43 -4.4,-9.83 -9.83,-9.83l-98.32 0 0 19.66 88.49 0 0 39.33 19.66 0zm-157.31 58.99l88.49 0 0 -19.66 -88.49 0 0 19.66zm9.83 58.99l19.66 0 0 -39.33 -19.66 0 0 39.33zm-127.82 -157.31l88.49 0 0 -19.66 -88.49 0 0 19.66zm117.98 39.33l88.49 0 0 -19.66 -88.49 0 0 19.66zm0 -39.33l19.66 0 0 -78.66 -19.66 0 0 78.66zm-108.15 -49.16l19.66 0 0 -19.66 -19.66 0 0 19.66zm403.11 -68.82l19.66 0 0 -39.33c0,-5.43 -4.4,-9.83 -9.83,-9.83l-49.16 0 0 19.66 39.33 0 0 29.5zm-452.27 157.31l88.49 0 0 -19.66 -88.49 0 0 19.66zm0 -29.5l19.66 0 0 -78.66 -19.66 0 0 78.66zm216.3 -206.47l19.66 0 0 -19.66 -19.66 0 0 19.66zm344.12 88.49l-19.66 0 0 98.32 -29.5 0 0 19.66 39.33 0c5.43,0 9.83,-4.4 9.83,-9.83l0 -108.15zm-393.28 9.83l88.49 0 0 -19.66 -88.49 0 0 19.66zm0 -39.33l19.66 0 0 -78.66 -19.66 0 0 78.66zm-117.98 -39.33l19.66 0 0 -19.66 -19.66 0 0 19.66zm88.49 29.5l-98.32 0 0 19.66 88.49 0 0 39.33 19.66 0 0 -49.16c0,-5.43 -4.4,-9.83 -9.83,-9.83zm-137.65 29.5l19.66 0 0 -88.49 -19.66 0 0 88.49zm216.3 -176.98l68.82 0 0 -19.66 -68.82 0 0 19.66zm-39.33 39.33l68.82 0 0 -19.66 -68.82 0 0 19.66zm216.3 49.16l-68.82 0 0 -117.98 -19.66 0 0 127.82c0,5.43 4.4,9.83 9.83,9.83l78.66 -0 0 -19.66zm-344.12 363.78l39.33 0c5.43,0 9.83,-4.4 9.83,-9.83l0 -39.33c0,-5.43 -4.4,-9.83 -9.83,-9.83l-39.33 0c-5.43,0 -9.83,4.4 -9.83,9.83l0 39.33c0,5.43 4.4,9.83 9.83,9.83zm9.83 -39.33l19.66 0 0 19.66 -19.66 0 0 -19.66zm68.82 -58.99l-117.98 0c-5.43,0 -9.83,4.4 -9.83,9.83l0 117.98c0,5.43 4.4,9.83 9.83,9.83l117.98 -0c5.43,0 9.83,-4.4 9.83,-9.83l0 -117.98c0,-5.43 -4.4,-9.83 -9.83,-9.83zm-9.83 117.98l-98.32 0 0 -98.32 98.32 0 0 98.32zm383.45 -491.6l-39.33 0c-5.43,0 -9.83,4.4 -9.83,9.83l0 39.33c0,5.43 4.4,9.83 9.83,9.83l39.33 0c5.43,0 9.83,-4.4 9.83,-9.83l0 -39.33c0,-5.43 -4.4,-9.83 -9.83,-9.83zm-9.83 39.33l-19.66 0 0 -19.66 19.66 0 0 19.66zm-68.82 58.99l117.98 0c5.43,0 9.83,-4.4 9.83,-9.83l0 -117.98c0,-5.43 -4.4,-9.83 -9.83,-9.83l-117.98 0c-5.43,0 -9.83,4.4 -9.83,9.83l0 117.98c0,5.43 4.4,9.83 9.83,9.83zm9.83 -117.98l98.32 0 0 98.32 -98.32 0 0 -98.32zm-344.12 19.66l-39.33 0c-5.43,0 -9.83,4.4 -9.83,9.83l0 39.33c0,5.43 4.4,9.83 9.83,9.83l39.33 0c5.43,0 9.83,-4.4 9.83,-9.83l0 -39.33c0,-5.43 -4.4,-9.83 -9.83,-9.83zm-9.83 39.33l-19.66 0 0 -19.66 19.66 0 0 19.66zm-78.66 -68.82l0 117.98c0,5.43 4.4,9.83 9.83,9.83l117.98 0c5.43,0 9.83,-4.4 9.83,-9.83l0 -117.98c0,-5.43 -4.4,-9.83 -9.83,-9.83l-117.98 0c-5.43,0 -9.83,4.4 -9.83,9.83zm19.66 9.83l98.32 0 0 98.32 -98.32 0 0 -98.32zm353.95 334.29l19.66 0 0 -19.66 -19.66 0 0 19.66zm-39.33 0l19.66 0 0 -19.66 -19.66 0 0 19.66zm39.33 -39.33l19.66 0 0 -19.66 -19.66 0 0 19.66zm-157.31 196.64l19.66 0 0 -19.66 -19.66 0 0 19.66zm49.16 -196.64l19.66 0 0 -19.66 -19.66 0 0 19.66zm108.15 -39.33l19.66 0 0 -19.66 -19.66 0 0 19.66zm-39.33 0l19.66 0 0 -19.66 -19.66 0 0 19.66zm39.33 -39.33l19.66 0 0 -49.16 -19.66 0 0 49.16z"/>
 </g>
</svg>
