<?xml version="1.0" encoding="UTF-8"?>
<!DOCTYPE svg PUBLIC "-//W3C//DTD SVG 1.1//EN" "http://www.w3.org/Graphics/SVG/1.1/DTD/svg11.dtd">
<!-- Creator: CorelDRAW 2018 (64-Bit) -->
<svg xmlns="http://www.w3.org/2000/svg" xml:space="preserve" width="25.1232mm" height="24.1468mm" version="1.1" style="shape-rendering:geometricPrecision; text-rendering:geometricPrecision; image-rendering:optimizeQuality; fill-rule:evenodd; clip-rule:evenodd"
viewBox="0 0 147.69 141.95"
 xmlns:xlink="http://www.w3.org/1999/xlink">
 <defs>
  <style type="text/css">
   <![CDATA[
    .fil0 {fill:#A7A7A7}
   ]]>
  </style>
 </defs>
 <g id="Layer_x0020_1">
  <metadata id="CorelCorpID_0Corel-Layer"/>
  <path class="fil0" d="M52.4 141.95l0 -11.64c-13.99,-4.81 -25.7,-14.43 -33.12,-27.28 -16.88,-29.24 -6.79,-66.87 22.44,-83.75 25.64,-14.8 58.34,-8.96 77.39,13.62l1.15 1.36 -16.46 9.5 40.68 19.79 3.2 -45.13 -17.72 10.23 -0.8 -1.02c-9.77,-12.44 -23.32,-21.29 -38.62,-25.29 -18.39,-4.81 -37.9,-2.18 -54.37,7.33 -34.57,19.96 -46.45,64.33 -26.5,98.89 9.42,16.32 24.67,28.2 42.72,33.37z"/>
 </g>
</svg>
