<?xml version="1.0" encoding="UTF-8"?>
<!DOCTYPE svg PUBLIC "-//W3C//DTD SVG 1.1//EN" "http://www.w3.org/Graphics/SVG/1.1/DTD/svg11.dtd">
<!-- Creator: CorelDRAW 2018 (64-Bit) -->
<svg xmlns="http://www.w3.org/2000/svg" xml:space="preserve" width="135.89mm" height="135.89mm" version="1.1" style="shape-rendering:geometricPrecision; text-rendering:geometricPrecision; image-rendering:optimizeQuality; fill-rule:evenodd; clip-rule:evenodd"
viewBox="0 0 2512.26 2512.26"
 xmlns:xlink="http://www.w3.org/1999/xlink">
 <defs>
  <style type="text/css">
   <![CDATA[
    .fil0 {fill:#A7A7A7}
   ]]>
  </style>
 </defs>
 <g id="Layer_x0020_1">
  <metadata id="CorelCorpID_0Corel-Layer"/>
  <path class="fil0" d="M1256.13 0c693.74,0 1256.13,562.39 1256.13,1256.13 0,693.74 -562.39,1256.13 -1256.13,1256.13 -693.74,0 -1256.13,-562.39 -1256.13,-1256.13 0,-693.74 562.39,-1256.13 1256.13,-1256.13zm483.94 1642.63l-0 0c-27.69,34.92 -78.91,40.85 -113.84,13.16l-422.89 -335.26c-34.61,-27.44 -35.01,-148.06 -35.01,-198.49l0 -534.23c0,-45.67 37.36,-83.03 83.03,-83.03l0 0c45.67,0 83.03,37.36 83.03,83.03l0 520.54c0,61.13 -18.9,94.27 19.94,125.07l372.57 295.37c34.93,27.69 40.85,78.92 13.16,113.84zm-483.94 -1466.54c596.49,0 1080.04,483.55 1080.04,1080.04 0,596.49 -483.55,1080.04 -1080.04,1080.04 -596.49,0 -1080.04,-483.55 -1080.04,-1080.04 0,-596.49 483.55,-1080.04 1080.04,-1080.04z"/>
 </g>
</svg>
