<?xml version="1.0" encoding="UTF-8"?>
<!DOCTYPE svg PUBLIC "-//W3C//DTD SVG 1.1//EN" "http://www.w3.org/Graphics/SVG/1.1/DTD/svg11.dtd">
<!-- Creator: CorelDRAW 2018 (64-Bit) -->
<svg xmlns="http://www.w3.org/2000/svg" xml:space="preserve" width="46.3432mm" height="46.3432mm" version="1.1" style="shape-rendering:geometricPrecision; text-rendering:geometricPrecision; image-rendering:optimizeQuality; fill-rule:evenodd; clip-rule:evenodd"
viewBox="0 0 229.05 229.05"
 xmlns:xlink="http://www.w3.org/1999/xlink">
 <defs>
  <style type="text/css">
   <![CDATA[
    .str0 {stroke:white;stroke-width:0.99;stroke-miterlimit:22.9256}
    .fil0 {fill:white}
    .fil1 {fill:#577954;fill-rule:nonzero}
   ]]>
  </style>
 </defs>
 <g id="Layer_x0020_1">
  <metadata id="CorelCorpID_0Corel-Layer"/>
  <circle class="fil0 str0" cx="114.53" cy="114.53" r="114.03"/>
  <path class="fil1" d="M114.53 29.79c23.4,0 44.58,9.49 59.92,24.82 15.33,15.33 24.82,36.52 24.82,59.92 0,23.4 -9.49,44.58 -24.82,59.92 -15.34,15.33 -36.52,24.82 -59.92,24.82 -23.4,0 -44.58,-9.49 -59.92,-24.82 -15.33,-15.34 -24.82,-36.52 -24.82,-59.92 0,-23.4 9.49,-44.58 24.82,-59.92 15.33,-15.33 36.52,-24.82 59.92,-24.82zm0 41.37l0 0c3.62,0 6.58,2.96 6.58,6.58l0 30.22 30.22 0c3.62,0 6.58,2.96 6.58,6.58l0 0c0,3.62 -2.96,6.58 -6.58,6.58l-30.22 0 0 30.22c0,3.62 -2.96,6.58 -6.58,6.58l0 0c-3.62,0 -6.58,-2.96 -6.58,-6.58l0 -30.22 -30.22 0c-3.62,0 -6.58,-2.96 -6.58,-6.58l0 0c0,-3.62 2.96,-6.58 6.58,-6.58l30.22 0 0 -30.22c0,-3.62 2.96,-6.58 6.58,-6.58zm50.62 -7.25c-12.95,-12.95 -30.85,-20.97 -50.62,-20.97 -19.77,0 -37.67,8.01 -50.62,20.97 -12.95,12.95 -20.97,30.85 -20.97,50.62 0,19.77 8.01,37.67 20.97,50.62 12.95,12.95 30.85,20.97 50.62,20.97 19.77,0 37.67,-8.01 50.62,-20.97 12.95,-12.95 20.97,-30.85 20.97,-50.62 0,-19.77 -8.01,-37.67 -20.97,-50.62z"/>
 </g>
</svg>
