<?xml version="1.0" encoding="UTF-8"?>
<!DOCTYPE svg PUBLIC "-//W3C//DTD SVG 1.1//EN" "http://www.w3.org/Graphics/SVG/1.1/DTD/svg11.dtd">
<!-- Creator: CorelDRAW 2018 (64-Bit) -->
<svg xmlns="http://www.w3.org/2000/svg" xml:space="preserve" width="47.8887mm" height="74.3159mm" version="1.1" style="shape-rendering:geometricPrecision; text-rendering:geometricPrecision; image-rendering:optimizeQuality; fill-rule:evenodd; clip-rule:evenodd"
viewBox="0 0 126.21 195.86"
 xmlns:xlink="http://www.w3.org/1999/xlink">
 <defs>
  <style type="text/css">
   <![CDATA[
    .fil0 {fill:#FF6600}
   ]]>
  </style>
 </defs>
 <g id="Layer_x0020_1">
  <metadata id="CorelCorpID_0Corel-Layer"/>
  <g id="_2211729219024">
   <path class="fil0" d="M90.46 64.1l35.44 -0.01c2.25,-12.17 -8.36,-31.92 -13.52,-38.57 -34.25,-44.11 -103.32,-27.95 -111.67,24.73 -0.36,2.26 -1.14,10.32 -0.39,12.15 0.68,1.67 1.17,1.89 4.31,1.86 8.65,-0.07 2.17,-7.81 11.81,-22.36 4.11,-6.21 7.1,-9.3 13.66,-13.33 17.93,-11.01 44.26,-7.38 55.71,13.33 5.44,9.84 2.79,12.07 4.65,22.19z"/>
   <path class="fil0" d="M50.31 179.95c-0.05,0.04 -0.88,2.73 -2.19,-0.77 -0.9,-5.98 -14.72,-44 -17.83,-52.98 -2.7,-7.79 -15.67,-47.39 -18.21,-51.55l-10.44 -0.02c1.02,6.5 31.95,91.46 37.41,107.01 5.85,16.66 3.02,14.14 15.76,14.02l42.64 -120.75 -10.87 0.07 -36.26 104.97z"/>
   <polygon class="fil0" points="113.52,105.08 113.53,195.67 124.19,195.28 124.2,74.71 113.27,74.63 70.46,195.66 81.61,195.45 "/>
   <path class="fil0" d="M50.31 179.95l-2.19 -0.77c1.31,3.49 2.15,0.81 2.19,0.77z"/>
  </g>
 </g>
</svg>
