<?xml version="1.0" encoding="UTF-8"?>
<!DOCTYPE svg PUBLIC "-//W3C//DTD SVG 1.1//EN" "http://www.w3.org/Graphics/SVG/1.1/DTD/svg11.dtd">
<!-- Creator: CorelDRAW 2018 (64-Bit) -->
<svg xmlns="http://www.w3.org/2000/svg" xml:space="preserve" width="82.3885mm" height="26.6938mm" version="1.1" style="shape-rendering:geometricPrecision; text-rendering:geometricPrecision; image-rendering:optimizeQuality; fill-rule:evenodd; clip-rule:evenodd"
viewBox="0 0 17319.87 5611.62"
 xmlns:xlink="http://www.w3.org/1999/xlink">
 <defs>
  <style type="text/css">
   <![CDATA[
    .str0 {stroke:#577954;stroke-width:74.17;stroke-miterlimit:22.9256}
    .fil0 {fill:#173151;fill-rule:nonzero}
    .fil1 {fill:#577954;fill-rule:nonzero}
   ]]>
  </style>
 </defs>
 <g id="Layer_x0020_1">
  <metadata id="CorelCorpID_0Corel-Layer"/>
  <path class="fil0" d="M13590.24 4385.97l165.21 0 0 1000.03 -165.21 0 0 -1000.03zm84.59 -387.57c31.09,0 57.12,11.56 77.36,35.07 18.44,20.24 27.48,44.84 27.48,73.03 0,30.38 -11.92,56.4 -35.78,78.45 -19.17,17.01 -42.32,25.31 -69.79,25.31 -31.81,0 -58.17,-11.2 -78.43,-33.99 -18.44,-20.24 -27.48,-44.46 -27.48,-71.94 0,-31.81 11.94,-58.57 35.8,-80.62 17.7,-16.99 41.2,-25.31 70.84,-25.31zm629.07 1387.59l0 -1000.03 165.23 0 0 141.02c36.87,-50.26 73.75,-87.14 111.35,-111.35 55.67,-35.09 117.49,-52.79 185.1,-52.79 94.73,0 171.37,27.83 229.94,83.5 39.42,36.89 64.73,79.55 75.2,128.36 7.97,38.68 11.58,84.59 11.58,137.74l0 673.55 -166.31 0 0 -637.75c0,-81.71 -11.94,-138.83 -35.8,-171.37 -32.54,-44.46 -84.95,-66.89 -156.91,-66.89 -74.1,0 -137.38,28.21 -189.45,84.61 -43.01,45.91 -64.71,106.29 -64.71,181.13l0 610.27 -165.23 0zm1659.83 -853.59l-155.82 0 0 853.59 -166.31 0 0 -853.59 -136.67 0 0 -146.44 136.67 0 0 -134.48c0,-95.08 21.69,-169.21 65.8,-221.26 52.05,-61.47 122.56,-92.2 211.86,-92.2 2.52,0 17.34,0.71 44.46,2.17l0 147.16c-53.86,7.95 -89.3,17.7 -105.93,29.64 -33.97,24.22 -50.98,69.06 -50.98,134.5l0 134.48 156.91 0 0 146.44zm849.63 -169.57c158.34,0 287.77,58.93 389.02,176.78 78.08,92.56 117.49,209.34 117.49,350.71 0,153.27 -54.24,280.54 -161.98,382.14 -96.16,91.11 -212.93,136.67 -350.69,136.67 -101.6,0 -194.14,-25.67 -277.66,-77.03 -151.84,-95.44 -227.78,-244.38 -227.78,-447.21 0,-165.95 52.07,-296.12 155.84,-390.82 96.16,-87.49 214.74,-131.24 355.76,-131.24zm0 151.49c-108.47,0 -195.61,38.68 -260.32,116.4 -55.31,64.37 -82.79,150.06 -82.79,257.42 0,113.54 32.16,203.92 96.51,270.07 65.44,66.54 147.16,99.79 244.78,99.79 112.07,0 200.28,-42.65 264.63,-127.27 50.26,-66.51 75.22,-147.51 75.22,-243.67 0,-119.32 -33.64,-211.86 -100.51,-277.3 -64.37,-63.63 -143.54,-95.44 -237.53,-95.44z"/>
  <g id="_3084348198608">
   <path class="fil0" d="M5425.66 5611.62c-380.99,-2.19 -751.12,-126.78 -1055.9,-355.38l-38.43 259.2 -239.91 0 0 -5452.4 307.2 0 0 2294.19c76.63,-57.54 432.01,-316.74 1046.36,-316.74 911.98,0 1689.39,777.61 1689.39,1785.56 0,1007.93 -768.07,1785.56 -1708.7,1785.56zm-47.97 -3292.81c-354.29,2.61 -697.94,120.71 -979.28,336.06l0 2323.06c105.72,76.63 479.98,355.15 979.28,355.15 806.26,0 1439.94,-662.35 1439.94,-1507.25 0,-844.67 -624.11,-1507.02 -1439.94,-1507.02zm0 0z"/>
   <path class="fil0" d="M9050.6 2040.5c768.07,0 1411.28,614.37 1411.28,1593.65l0 163.03 -2793.47 0 0 57.54c19.09,902.21 671.89,1478.15 1449.48,1478.15 441.99,-1.3 874.65,-127.65 1247.84,-364.69l0 288.07c-95.95,57.52 -537.5,345.39 -1276.7,345.39 -940.87,0 -1728.02,-710.34 -1728.02,-1775.81 0.21,-1055.69 796.93,-1785.33 1689.6,-1785.33zm1123.22 1516.79c0,-729.62 -499.09,-1248.05 -1142.3,-1248.05 -787.18,0 -1257.61,623.92 -1344.01,1248.05l2486.32 0zm0 0z"/>
   <path class="fil0" d="M12539 4709.18c0,-422.25 -547.08,-643.26 -835.15,-796.72 -268.75,-143.94 -883.12,-432.01 -883.12,-988.84 0,-518.41 403.14,-883.12 1065.47,-883.12 290.48,0.65 576.6,69.69 835.15,201.67l0 287.88c-153.48,-86.4 -499.09,-230.34 -815.81,-230.34 -518.43,0 -777.61,268.75 -777.61,604.81 0,412.69 489.52,614.37 768.07,758.29 268.75,134.37 940.64,432.01 940.64,1027.27 0,566.17 -441.57,921.55 -1113.46,921.55 -309.34,0.19 -613.49,-79.04 -883.33,-230.55l0 -297.42c86.4,38.2 470.43,259.2 883.33,259.2 499.09,0 815.83,-249.66 815.83,-633.67zm0 0z"/>
   <path class="fil0" d="M3302.97 5524.99l0 -3388.74 307.18 0 0 3388.74 -307.18 0zm0 0z"/>
   <path class="fil0" d="M2527.75 2139.07l326.29 0 -1238.27 3388.74 -307.41 0 -1238.27 -3388.74 326.29 0 1065.68 2995.16 1065.7 -2995.16zm0 0z"/>
   <g>
    <path class="fil0" d="M3449.3 2529.81l-1065.49 2995.18 -326.29 0 1238.27 -3388.74 306.99 0 -153.48 393.56zm0 0l0 0 0 0z"/>
   </g>
   <path class="fil1 str0" d="M68.57 1779.99l-1.74 -53.63c-0.86,-17.57 -0.63,-38.85 0,-64.48 0.44,-12.8 0.65,-26.47 1.09,-41.25 1.09,-14.53 2.17,-29.96 3.26,-46.44 5.87,-79.25 18.02,-158.04 36.68,-235.55 24.32,-101.37 58.61,-200.15 102.46,-294.79 52.98,-113.12 119.17,-219.7 197.1,-317.39 43.01,-53.63 89.24,-104.63 138.96,-152.39 52.09,-50.37 107.68,-97.04 166.29,-139.38 123.95,-90.96 260.28,-163.47 404.87,-215.56 75.34,-26.93 152.41,-48.41 230.55,-64.26 159.56,-32.33 323.26,-40.83 485.19,-25.16 81.42,7.8 162.17,21.48 241.61,40.78 156.32,38.66 306.34,99.43 445.27,180.41 67.29,38.85 131.56,82.49 192.54,130.25 58.84,45.81 114.84,95.52 167.38,148.71 180.83,183.21 318.91,404.42 404.21,647.36 30.84,86.61 54.49,175.85 70.78,266.35l9.54 53.63c2.4,16.71 4.12,32.79 6.08,47.55 3.91,29.75 6.75,54.91 8.03,75.53l4.56 62.96 138.07 0c0,0 -1.96,-23.65 -5.87,-67.73 -1.51,-22.35 -4.98,-49.28 -9.54,-81.19 -2.4,-15.85 -4.56,-32.79 -7.61,-51.02l-11.06 -57.52c-19.11,-97.04 -46.04,-192.56 -80.33,-285.25 -44.08,-118.96 -99.86,-233.16 -166.73,-341.04 -78.14,-125.27 -171.06,-240.98 -276.36,-344.53 -56.87,-55.79 -117.22,-107.68 -180.83,-155.65 -65.57,-49.72 -134.61,-94.87 -206.67,-134.82 -224.24,-126.34 -473.46,-202.11 -730.06,-222.08 -170.64,-13.48 -342.14,-1.53 -509.3,35.38 -81.61,18.25 -161.93,42.11 -240.09,71.85 -149.8,56.89 -290.67,135.26 -418.32,232.3 -59.91,45.58 -116.59,95.08 -169.54,148.48 -219.7,218.17 -371.46,495.18 -437.01,797.58 -17.36,79.46 -28.44,160.44 -32.56,241.84 -0.86,16.92 -1.51,32.77 -2.4,47.76 0,14.76 0,28.65 0,41.9 0,26.05 0,47.97 1.53,65.99 1.96,35.61 3.03,54.49 3.03,54.49l26.93 0zm0 0z"/>
   <path class="fil1 str0" d="M95.92 1779.99l-0.44 -52.53c-0.44,-17.15 0,-38.43 1.32,-63.38 0.63,-12.38 1.28,-25.84 1.96,-40.15 1.28,-14.13 2.59,-29.3 4.12,-45.39 7.38,-77.28 21.04,-153.92 41.01,-229.04 73.81,-280.9 226.64,-534.89 440.27,-731.78 51,-47.32 105.28,-91.19 162.59,-130.93 120.48,-84.43 252.27,-151.3 391.64,-198.41 72.27,-24.3 146.08,-43.2 220.99,-57.1 152.18,-27.56 307.62,-32.56 461.31,-14.97 76.63,8.89 152.62,23.44 227.29,43.18 146.52,39.1 286.55,98.99 415.95,177.81 62.31,37.55 121.78,79.46 178.23,125.48 54.28,43.85 105.93,91.17 154.13,141.98 165.19,173.43 290.02,381.41 365.58,608.7 26.93,80.77 47.32,163.68 61.01,247.7 2.82,17.6 5.42,34.08 7.8,49.72l5 44.06c3.05,27.35 5.63,50.81 6.08,69.92l3.26 58.17 138.28 0 -4.56 -62.96c-1.28,-20.62 -4.12,-45.81 -8.03,-75.32 -1.96,-14.99 -3.68,-30.84 -6.08,-47.76l-9.54 -53.63c-16.29,-90.52 -39.94,-179.53 -70.78,-266.35 -85.31,-242.93 -223.38,-464.15 -404.21,-647.36 -52.53,-53.19 -108.54,-102.69 -167.38,-148.71 -60.99,-47.76 -125.25,-91.4 -192.54,-130.04 -138.94,-81.19 -288.95,-141.98 -445.27,-180.41 -79.44,-19.53 -160.19,-33.19 -241.61,-41.01 -161.93,-15.43 -325.63,-6.94 -485.19,25.18 -78.14,16.06 -155.21,37.55 -230.55,64.48 -144.59,52.09 -280.92,124.6 -404.87,215.35 -58.61,42.55 -114.19,89.22 -166.08,139.8 -49.72,47.55 -96.16,98.55 -138.94,152.41 -77.93,97.46 -144.15,204.04 -197.1,317.16 -44.08,94.64 -78.6,193.43 -102.9,294.79 -18.67,77.51 -31.05,156.3 -36.91,235.55 -1.09,16.48 -2.17,31.91 -3.03,46.44 -0.44,14.78 -0.65,28.44 -1.09,41.25 -0.65,25.42 -0.86,46.9 0,64.48l1.72 53.63 27.58 0zm0 0z"/>
   <path class="fil1 str0" d="M123.27 1780.22c0,0 0,-18.02 0.88,-51.67 0,-16.71 1.07,-37.57 2.82,-62.08 0.86,-12.17 1.72,-25.21 2.61,-39.29l5.19 -44.5c8.91,-75.34 24.11,-149.8 45.18,-222.52 59.26,-207.97 164.12,-400.33 306.5,-562.93 42.13,-48.18 87.28,-93.55 135.26,-135.89 50.16,-44.5 103.11,-85.31 158.91,-122.22 117.01,-78.16 244.45,-139.15 378.61,-181.25 69.04,-21.51 139.59,-38.22 211.23,-49.72 144.57,-23.02 291.98,-24.53 436.99,-4.56 72.3,9.99 143.5,24.95 213.4,45.16 136.56,39.5 266.58,98.32 386.43,174.76 57.52,36.24 112.24,76.63 163.89,120.69 49.95,41.92 97.04,87.05 140.89,135.26 149.59,163.68 261.37,358.41 326.73,570.29 23.44,74.88 40.8,151.3 51.67,229.04 2.17,16.04 4.33,31.26 6.29,45.79 1.3,14.34 2.61,27.79 3.7,40.38 2.4,25.42 4.12,46.9 4.33,64.26 1.3,34.94 1.96,53.4 1.96,53.4l138.28 0 -3.26 -58.17c-0.86,-19.11 -3.03,-42.34 -6.08,-69.9l-5 -44.08c-2.59,-15.64 -5.21,-32.12 -7.8,-49.7 -13.69,-84.03 -34.08,-166.96 -61.22,-247.73 -75.55,-227.29 -200.38,-435.03 -365.58,-608.26 -48.2,-50.6 -99.65,-98.13 -154.13,-141.98 -56.44,-46.02 -115.94,-87.94 -178.23,-125.48 -129.39,-78.81 -269.4,-138.7 -415.73,-177.81 -74.67,-19.74 -150.88,-34.06 -227.5,-42.97 -153.71,-17.81 -309.13,-12.8 -461.31,14.99 -74.9,13.66 -148.71,32.75 -220.78,56.87 -139.38,47.11 -271.38,113.98 -391.85,198.41 -57.31,39.73 -111.59,83.61 -162.38,130.93 -48.86,45.13 -94.66,93.13 -137.21,144.13 -77.49,92.92 -143.71,194.73 -197.34,303.06 -44.5,91.17 -79.88,186.49 -105.49,284.6 -19.97,75.11 -33.66,151.76 -41.04,229.04 -1.51,16.08 -2.84,31.26 -4.14,45.39 -0.63,14.32 -1.28,27.77 -1.72,40.15 -1.3,24.95 -1.96,46.23 -1.51,63.38l0.42 52.53 27.14 0.23zm0 0z"/>
   <path class="fil1 str0" d="M150.86 1780.22c0,0 0.63,-17.81 1.96,-50.81 0,-16.71 1.72,-36.91 4.12,-60.56 1.09,-11.94 2.17,-24.76 3.47,-38.43l6.08 -43.41c10.64,-73.16 27.14,-145.45 49.28,-216.21 62.52,-199.94 168.47,-383.82 310.22,-538.17 41.69,-45.58 86.19,-88.13 133.51,-127.86 48.83,-41.48 100.74,-79.46 155.21,-113.77 113.33,-71.83 236.42,-127 365.37,-164.12 66.01,-18.88 133.51,-32.98 201.46,-42.32 137.42,-18.46 276.57,-16.5 413.13,5.63 67.52,11.08 134.16,26.93 199.29,47.32 126.55,40.15 246.82,98.13 357.1,172.38 52.53,34.94 102.46,73.58 149.57,115.92 45.16,39.94 87.94,82.93 127.44,128.51 134.16,153.92 232.51,335.64 288.07,531.88 19.76,68.83 33.87,139.15 42.13,210.14l4.77 41.9c0.86,13.24 1.72,25.61 2.4,37.13 1.72,23.02 2.82,42.55 2.59,58.61l0.65 48.83 138.07 0c0,0 -0.65,-18.67 -1.96,-53.61 0,-17.36 -1.74,-38.85 -4.12,-64.05 -1.3,-12.57 -2.4,-26.26 -3.91,-40.59 -1.96,-14.32 -3.91,-29.75 -6.29,-45.79 -10.87,-77.51 -28.23,-154.16 -51.46,-228.83 -65.57,-211.88 -177.15,-406.82 -326.94,-570.5 -43.85,-47.97 -90.94,-93.15 -140.68,-135.26 -51.86,-44.06 -106.58,-84.45 -164.1,-120.69 -119.85,-76.44 -249.87,-135.26 -386.43,-174.76 -69.9,-20.2 -141.1,-35.17 -213.17,-45.16 -145.24,-19.97 -292.65,-18.25 -437.22,4.77 -71.43,11.5 -141.98,28 -211.23,49.51 -134.16,42.11 -261.6,103.09 -378.61,181.25 -55.79,36.91 -108.75,77.93 -158.7,122.22 -48.18,42.34 -93.34,87.7 -135.24,135.89 -142.61,162.82 -247.26,354.96 -306.73,562.93 -21.06,72.93 -36.26,147.41 -45.18,222.71l-4.98 44.31 -2.82 39.29c-1.74,24.51 -3.05,45.13 -2.82,62.08 -0.44,33.66 -0.65,51.67 -0.65,51.67l27.35 0zm0 0z"/>
   <path class="fil1 str0" d="M177.99 1780.22l3.24 -49.72c0.67,-16.29 2.82,-36.05 5.65,-59.49 1.3,-11.5 2.82,-24.09 4.33,-37.34l7.17 -42.32c11.94,-71.22 29.98,-141.33 53.42,-209.72 65.34,-192.33 172.57,-367.74 313.69,-513.64 41.25,-42.55 85.08,-82.49 131.54,-119.41 47.99,-38.43 98.57,-73.58 151.53,-104.86 109.86,-65.55 228.39,-115.26 352.35,-147.18 62.94,-16.06 127.21,-27.79 191.91,-34.73 129.81,-14.11 260.72,-8.68 389.02,15.64 62.73,12.13 124.6,28.65 185.18,49.49 116.57,40.38 226.85,97.48 327.36,169.12 47.76,33.85 93.13,70.97 135.45,111.14 40.83,37.99 78.81,78.79 114.21,121.99 64.24,78.16 118.94,163.91 163.03,255.08 36.68,76.42 65.57,156.3 86.38,238.35 15.85,62.75 26.72,126.78 32.37,191.26l3.24 38.01c0.44,11.92 0.88,23.21 1.09,33.43 0.86,20.85 1.51,38.43 0.86,52.95 -0.65,28.67 -0.86,43.87 -0.86,43.87l138.28 0 -0.65 -48.65c0,-16.06 -0.86,-35.59 -2.38,-58.61 -0.88,-11.5 -1.74,-23.88 -2.63,-37.13l-4.77 -41.9c-8.24,-70.99 -22.35,-141.31 -41.9,-210.14 -55.56,-196.45 -154.13,-378.17 -288.3,-531.86 -39.5,-45.6 -82.05,-88.59 -127.42,-128.74 -46.9,-42.11 -97.04,-80.75 -149.57,-115.94 -110.07,-74.02 -230.34,-131.98 -356.89,-172.13 -65.36,-20.64 -131.77,-36.26 -199.29,-47.34 -136.77,-22.14 -275.92,-24.09 -413.13,-5.63 -68.15,9.33 -135.45,23.44 -201.67,42.13 -128.95,37.1 -252.04,92.48 -365.34,164.31 -54.28,34.1 -106.18,72.09 -155.23,113.77 -47.11,39.5 -91.82,82.28 -133.3,127.86 -141.98,154.13 -247.91,338.02 -310.22,538.17 -22.35,70.55 -38.85,142.85 -49.28,216.23l-6.08 43.18c-1.3,13.69 -2.38,26.49 -3.7,38.43 -2.17,23.88 -3.89,44.29 -4.12,60.8 -1.28,32.98 -1.96,50.56 -1.96,50.56l27.37 0.67zm0 0z"/>
   <path class="fil1 str0" d="M205.34 1780.22l4.54 -48.65c1.09,-15.83 3.7,-35.38 6.96,-58.17l5.65 -36.47 8.01 -41.25c13.48,-69.27 32.79,-137.21 57.54,-203.2 31.7,-84.87 71.64,-166.29 119.39,-243.14 56.02,-89.43 122.45,-172.15 198.01,-245.96 40.59,-39.94 84,-77.05 129.6,-111.14 46.9,-35.61 96.37,-67.73 147.83,-96.39 106.37,-59.26 220.33,-103.11 339.09,-130.04 60.14,-13.45 120.92,-22.58 182.37,-27.35 61.43,-4.35 122.87,-4.35 184.3,-0.44 60.78,4.79 121.13,13.71 180.62,26.51 58.17,13.01 115.26,30.17 171.06,51.44 106.81,41.04 207.11,97.04 298.07,166.5 42.99,32.35 83.35,67.94 121.13,106.39 36.24,36.03 69.9,74.44 100.74,115.03 56,73.39 103.32,153.06 140.45,237.3 30.61,70.11 54.28,143.06 70.32,217.73 12.38,56.89 19.97,114.63 22.81,172.8 0.65,11.94 1.3,23.23 1.74,33.87 0.42,10.87 0.42,20.85 0,30.17 0,18.67 0,34.31 -1.09,47.34 -1.3,25.61 -2.17,39.29 -2.17,39.29l138.28 0c0,0 0,-15.41 0.63,-44.08 0.88,-14.32 0,-32.1 -0.63,-52.95 -0.44,-10.43 -0.65,-21.51 -1.09,-33.22l-3.26 -37.99c-5.63,-64.71 -16.5,-128.51 -32.56,-191.49 -20.62,-82.05 -49.7,-161.93 -86.19,-238.35 -44.06,-91.17 -98.97,-176.71 -163.03,-255.08 -35.38,-43.2 -73.37,-83.79 -114.19,-121.99 -42.32,-40.17 -87.68,-77.3 -135.45,-111.14 -100.51,-71.64 -210.81,-128.74 -327.38,-169.12 -60.59,-20.83 -122.43,-37.36 -185.16,-49.49 -128.32,-24.32 -259.43,-29.54 -389.04,-15.64 -64.69,6.94 -128.95,18.67 -192.12,34.73 -123.74,32.14 -242.26,81.63 -352.12,147.18 -52.98,31.28 -103.56,66.43 -151.53,105.09 -46.46,36.68 -90.31,76.63 -131.56,119.17 -141.31,145.89 -248.36,321.51 -313.69,513.64 -23.44,68.39 -41.46,138.49 -53.61,209.93l-6.96 42.11c-1.51,13.45 -3.03,25.84 -4.56,37.57 -2.82,23.21 -5,43.18 -5.42,59.26l-3.26 49.72 26.93 0zm0 0z"/>
   <path class="fil1 str0" d="M232.69 1780.22c0,0 1.96,-16.71 5.63,-47.76 1.53,-15.41 4.56,-34.52 8.47,-56.68 1.96,-11.06 4.12,-23 6.31,-35.59 2.82,-12.59 5.63,-26.05 8.89,-40.17 15.2,-67.06 35.82,-133.05 61.87,-196.89 33,-81.4 74.02,-159.35 122.66,-232.51 56.65,-84.89 123.08,-162.82 198.2,-231.83 40.15,-37.13 82.91,-71.43 127.86,-102.9 45.81,-32.56 94.22,-61.87 144.36,-87.49 102.69,-53.19 212.32,-91.38 325.84,-113.1 57.12,-10.85 114.84,-17.36 172.8,-19.97 57.77,-1.96 115.52,-0.23 173.03,5.42 56.44,6.52 112.45,16.94 167.82,30.84 53.4,14.08 105.93,31.89 156.95,53.61 97.04,41.25 187.33,96.39 268.54,163.7 38.2,31.24 73.79,65.13 107.02,101.58 88.13,95.52 157.81,206.9 205.13,327.8 24.74,63.84 42.78,129.83 54.28,197.36 8.68,50.79 13.24,102.23 13.24,153.9 0,10.64 0,20.62 0,29.96 -0.44,9.54 -0.86,18.46 -1.3,26.72 -0.65,16.48 -1.3,30.17 -3.05,41.67 -2.17,22.37 -3.24,34.52 -3.24,34.52l138.05 0c0,0 0.86,-13.69 2.19,-39.29 1.07,-13.03 1.07,-28.67 1.07,-47.34 0,-9.31 0,-19.3 0,-30.17 0,-10.64 -0.65,-21.93 -1.72,-33.87 -2.84,-58.17 -10.43,-115.92 -22.79,-172.8 -16.08,-74.67 -39.73,-147.62 -70.34,-217.73 -37.15,-84.24 -84.47,-163.91 -140.47,-237.3 -30.82,-40.59 -64.48,-79 -100.72,-115.03 -37.78,-38.45 -78.16,-74.04 -121.15,-106.39 -90.96,-69.46 -191.24,-125.46 -298.05,-166.5 -55.79,-21.27 -112.89,-38.43 -171.08,-51.44 -59.7,-12.8 -119.83,-21.72 -180.6,-26.51 -61.45,-3.91 -122.87,-3.91 -184.32,0.44 -61.43,4.77 -122.2,13.9 -182.35,27.35 -118.73,26.93 -232.95,70.78 -339.09,130.04 -51.44,28.65 -100.95,60.78 -147.85,96.39 -45.58,34.1 -89.01,71.2 -129.6,111.14 -75.53,74.04 -141.96,156.53 -197.97,245.96 -47.76,76.86 -87.73,158.28 -119.41,243.14 -24.76,65.99 -44.06,133.93 -57.52,203.2l-8.05 41.25 -5.65 36.47c-3.24,22.79 -6.05,42.11 -6.94,58.17l-4.56 48.65 27.58 0zm0 0z"/>
  </g>
 </g>
</svg>
