<?xml version="1.0" encoding="UTF-8"?>
<!DOCTYPE svg PUBLIC "-//W3C//DTD SVG 1.1//EN" "http://www.w3.org/Graphics/SVG/1.1/DTD/svg11.dtd">
<!-- Creator: CorelDRAW 2018 (64-Bit) -->
<svg xmlns="http://www.w3.org/2000/svg" xml:space="preserve" width="44.8395mm" height="44.8546mm" version="1.1" style="shape-rendering:geometricPrecision; text-rendering:geometricPrecision; image-rendering:optimizeQuality; fill-rule:evenodd; clip-rule:evenodd"
viewBox="0 0 9928.89 9932.24"
 xmlns:xlink="http://www.w3.org/1999/xlink">
 <defs>
  <style type="text/css">
   <![CDATA[
    .fil0 {fill:#D4A07E}
   ]]>
  </style>
 </defs>
 <g id="Layer_x0020_1">
  <metadata id="CorelCorpID_0Corel-Layer"/>
  <path class="fil0" d="M4964.86 4966.14c1370.91,0 2482.23,-1111.72 2482.23,-2483.09 0,-1371.33 -1111.32,-2483.05 -2482.23,-2483.05 -1370.88,0 -2482.21,1111.72 -2482.21,2483.05 0,1371.37 1111.32,2483.09 2482.21,2483.09zm1654.69 -2483.09c0,914.16 -740.84,1655.22 -1654.69,1655.22 -913.87,0 -1654.65,-741.07 -1654.65,-1655.22 0,-914.16 740.78,-1655.22 1654.65,-1655.22 913.85,0 1654.69,741.07 1654.69,1655.22zm3309.34 6621.36c0,827.82 -827.11,827.82 -827.11,827.82l-8274.22 0c0,0 -827.56,0 -827.56,-827.82 0,-827.8 827.56,-3310.45 4964.43,-3310.45 4136.9,0 4964.46,2482.65 4964.46,3310.45zm-827.11 -3.3c-0.84,-203.63 -127.5,-816.29 -688.54,-1377.08 -539.21,-539.81 -1554.74,-1102.66 -3448.38,-1102.66 -1894.9,0 -2909.15,562.86 -3448.36,1102.66 -561.02,560.8 -686.88,1173.46 -688.54,1377.08l8273.82 0zm0 0z"/>
 </g>
</svg>
