<?xml version="1.0" encoding="UTF-8"?>
<!DOCTYPE svg PUBLIC "-//W3C//DTD SVG 1.1//EN" "http://www.w3.org/Graphics/SVG/1.1/DTD/svg11.dtd">
<!-- Creator: CorelDRAW 2018 (64-Bit) -->
<svg xmlns="http://www.w3.org/2000/svg" xml:space="preserve" width="41.6715mm" height="44.8524mm" version="1.1" style="shape-rendering:geometricPrecision; text-rendering:geometricPrecision; image-rendering:optimizeQuality; fill-rule:evenodd; clip-rule:evenodd"
viewBox="0 0 1196.18 1287.48"
 xmlns:xlink="http://www.w3.org/1999/xlink">
 <defs>
  <style type="text/css">
   <![CDATA[
    .fil0 {fill:#A7A7A7}
   ]]>
  </style>
 </defs>
 <g id="Layer_x0020_1">
  <metadata id="CorelCorpID_0Corel-Layer"/>
  <path class="fil0" d="M1186.68 1186.41l-324.33 -349.66c156.11,-216.27 129.02,-525.88 -61.74,-707.06 -190.82,-181.12 -479.58,-171.41 -659.53,22.19 -179.84,193.66 -188.9,504.49 -20.58,709.83 168.32,205.34 455.96,234.46 656.86,66.5l324.91 349.03c24.16,16.53 55.72,12.75 75.98,-9.07 20.26,-21.76 23.72,-55.73 8.42,-81.76zm-1064.74 -666.9c0,-214.46 161.5,-388.28 360.74,-388.28 199.25,0 360.74,173.82 360.74,388.28 0,214.41 -161.55,388.27 -360.74,388.27 -199.14,-0.22 -360.53,-173.93 -360.79,-388.27l0.05 0zm0 0z"/>
 </g>
</svg>
